<svg width="80" height="80" viewBox="0 0 80 80" fill="none" xmlns="http://www.w3.org/2000/svg">
<rect width="80" height="80" fill="#141414"/>
<path fill-rule="evenodd" clip-rule="evenodd" d="M60.96 77.72C60.84 78.36 60.72 78.92 60.56 79.4L48.24 79.36C48.22 79.34 48.19 79.32 48.16 79.3C48.13 79.28 48.1 79.26 48.08 79.24C45.571 77.5941 43.616 76.2605 41.6742 74.9358C39.7462 73.6206 37.8313 72.3143 35.4 70.72C30.5308 67.5429 32.5784 65.5882 35.314 62.9769C35.747 62.5635 36.1972 62.1337 36.64 61.68C36.8455 61.4647 37.8725 60.5094 39.3106 59.1715C43.7502 55.0417 52.1085 47.2664 52.32 46.36C52.36 46.2 52.36 45.64 52.04 45.36C51.6923 45.0896 51.2326 45.1923 50.8773 45.2717C50.8647 45.2745 50.8523 45.2773 50.84 45.28C50.32 45.4 42.36 50.68 26.88 61.16C24.6 62.72 22.56 63.48 20.72 63.44C18.68 63.4 14.76 62.32 11.84 61.36C11.4002 61.2167 10.9715 61.082 10.5581 60.9521C7.62536 60.0304 5.46965 59.3529 5.68 57.6C5.8 56.56 7.24 55.52 9.88 54.44L9.88113 54.4395C26.4405 47.2398 37.4801 42.44 43.04 40.12C58.84 33.56 62.16 32.4 64.28 32.36C64.76 32.36 65.8 32.48 66.52 33.04C67.08 33.52 67.24 34.12 67.32 34.6C67.4 35.08 67.48 36.08 67.4 36.84C66.56 45.84 62.84 67.68 60.96 77.72Z" fill="white"/>
</svg>
