<svg width="80" height="80" viewBox="0 0 80 80" fill="none" xmlns="http://www.w3.org/2000/svg">
<rect width="80" height="80" fill="#141414"/>
<path d="M32.24 36.84C31.12 34.72 30.52 32.36 30.52 29.8C30.52 21.44 37.32 14.6 45.72 14.6C54.12 14.6 60.92 21.4 60.92 29.8C60.92 32.32 60.28 34.72 59.2 36.84C56.36 33.44 51.4 31.16 45.72 31.16C40.04 31.16 35.08 33.44 32.24 36.84Z" fill="white"/>
<path d="M60.88 43.3599C60.88 46.2799 59.44 48.9599 57 50.9599C54.12 49.3999 50.12 48.4399 45.68 48.4399C41.24 48.4399 37.24 49.3999 34.36 50.9599C31.96 48.9599 30.48 46.2799 30.48 43.3599C30.48 41.5199 31.08 39.7599 32.12 38.1999C32.2 38.0799 32.28 37.9999 32.36 37.8799C32.44 37.7599 32.52 37.6799 32.6 37.5599C35.24 34.1999 40.12 31.9199 45.68 31.9199C51.24 31.9199 56.12 34.1999 58.76 37.5599C58.84 37.6799 58.92 37.7599 59 37.8799C59.08 37.9999 59.16 38.0799 59.24 38.1999C60.32 39.7199 60.88 41.4799 60.88 43.3599Z" fill="white"/>
<path d="M60.88 56.8799C60.88 61.1199 54.08 64.5599 45.68 64.5599C37.28 64.5599 30.48 61.1199 30.48 56.8799C30.48 54.9599 31.88 53.16 34.24 51.84C34.36 51.76 34.48 51.72 34.56 51.64C34.68 51.56 34.8 51.52 34.92 51.44C37.68 50.04 41.48 49.2 45.64 49.2C49.8 49.2 53.6 50.08 56.36 51.44C56.48 51.48 56.6 51.56 56.72 51.64C56.84 51.68 56.96 51.76 57.04 51.84C59.48 53.16 60.88 54.9199 60.88 56.8799Z" fill="white"/>
<path d="M60.88 70.4C60.88 72.24 54.64 74.32 45.68 74.32C36.72 74.32 30.48 72.24 30.48 70.4C30.48 68.56 36.72 66.48 45.68 66.48C54.64 66.48 60.88 68.52 60.88 70.4Z" fill="white"/>
</svg>
