<svg width="80" height="80" viewBox="0 0 80 80" fill="none" xmlns="http://www.w3.org/2000/svg">
<rect width="80" height="80" transform="matrix(-1 0 0 1 80 0)" fill="#141414"/>
<path fill-rule="evenodd" clip-rule="evenodd" d="M0.599998 26.84C2.24 27.24 3.92 27.88 5.72 28.76C11.72 31.68 16.6 36.04 20.16 39.48C20.92 40.2 21.44 40.2 22.16 39.48C26.36 35.4 30.36 32.28 34.4 29.92C38.56 27.52 42.56 26.32 46.52 26.32C48 26.32 49.44 26.48 50.92 26.8C57.04 28.16 61.52 32.2 63.32 37.92C63.72 39.28 64 40.76 64.16 42.32C64.8 48.96 62.92 54.84 59.04 58.48C52.68 64.4 43.24 63.76 36.64 60.56C30.64 57.64 25.76 53.28 22.16 49.84C21.4 49.12 20.88 49.12 20.16 49.84C15.96 53.92 11.96 57.04 7.92 59.4C5.4 60.88 3 61.88 0.599998 62.44L0.68 62.96C3.2 62.4 5.68 61.36 8.32 59.84C12.4 57.48 16.44 54.32 20.68 50.2C21.16 49.72 21.32 49.72 21.8 50.2C25.4 53.68 30.32 58.08 36.4 61.04C39.48 62.56 43.2 63.52 46.96 63.52C51.4 63.52 55.88 62.2 59.44 58.88C63.48 55.12 65.4 49.04 64.72 42.2C64.56 40.6 64.28 39.08 63.84 37.68C62.08 31.8 57.4 27.6 51.08 26.2C45.48 24.96 39.92 26 34.08 29.4C30 31.76 25.96 34.92 21.72 39.04C21.24 39.52 21.08 39.52 20.6 39.04C17 35.56 12.08 31.16 6 28.2C4.12 27.24 2.36 26.6 0.639999 26.2L0.599998 26.84Z" fill="white"/>
<path d="M0.599998 32.8C2.32 33.4 3.88 34.24 5.07999 34.96C8.75999 37.12 12.36 39.92 16.44 43.84C16.64 44.04 16.88 44.32 16.88 44.64C16.88 44.96 16.64 45.24 16.4 45.48C12.44 49.28 8.88 52.08 5.2 54.28C3.6 55.24 2.08 55.92 0.599998 56.44V55.76C2 55.28 3.39999 54.64 4.88 53.76C8.52 51.6 12.04 48.84 15.96 45.04C16.04 44.96 16.24 44.76 16.24 44.64C16.24 44.6 16.2 44.48 16 44.28C11.96 40.4 8.39999 37.6 4.75999 35.48C3.64 34.84 2.2 34.04 0.599998 33.44V32.8Z" fill="white"/>
<path d="M25.9602 43.8001C29.9202 40.0001 33.4802 37.2001 37.1602 35.0001C41.5602 32.3601 45.5202 31.5601 49.5602 32.3601C55.5602 33.6001 59.2002 39.0001 58.6002 45.8401C58.3602 48.6801 57.1202 52.7201 54.5202 54.8001C52.4402 56.4801 49.8402 57.1601 47.2002 57.1601C43.7602 57.1601 40.1602 56.0001 37.2402 54.2801C33.6002 52.1201 30.0002 49.3201 25.9602 45.4401C25.7202 45.2001 25.4802 44.9201 25.4802 44.6001C25.4802 44.2801 25.7202 44.0001 25.9602 43.8001ZM26.3602 45.0401C30.3602 48.8801 33.9202 51.6401 37.5202 53.8001C42.3202 56.6001 49.5602 58.0001 54.0802 54.3601C56.5602 52.4001 57.6802 48.5201 57.9202 45.8001C58.4802 39.3201 55.0402 34.1601 49.3602 33.0001C48.4002 32.8001 47.4402 32.7201 46.4802 32.7201C43.5602 32.7201 40.6002 33.6401 37.4002 35.5601C33.7602 37.7201 30.2402 40.4801 26.3202 44.2801C26.1202 44.4801 26.0402 44.6001 26.0402 44.6801C26.0802 44.7201 26.2002 44.8801 26.3602 45.0401Z" fill="white"/>
</svg>
