<svg width="80" height="80" viewBox="0 0 80 80" fill="none" xmlns="http://www.w3.org/2000/svg">
<rect width="80" height="80" fill="#141414"/>
<path fill-rule="evenodd" clip-rule="evenodd" d="M48.08 40.44C48.36 41.6 48.48 42.8 48.56 44.12L48.72 44.8V45.44C48.72 45.92 48.72 46.2 48.68 46.48L48.64 46.96H56.64H60.6L60.52 46.04C60.52 45.793 60.4823 45.5083 60.4329 45.1343C60.4102 44.9632 60.3851 44.7734 60.36 44.56L60.32 44.28C60.32 44.0705 60.2895 43.8914 60.2552 43.6896C60.2502 43.6603 60.2451 43.6305 60.24 43.6L60.04 42.52C59.68 40.68 59.2 38.96 58.6 37.28C57.8 35.08 56.76 32.96 55.56 30.96C54.16 28.72 52.48 26.56 50.48 24.56C49.32 23.4 48.24 22.44 47.16 21.64C46.68 21.28 46.16 20.92 45.64 20.56L45.28 20.32C45.18 20.26 45.07 20.19 44.96 20.12C44.85 20.05 44.74 19.98 44.64 19.92L44.32 19.72C43.96 19.48 43.64 19.28 43.32 19.12C40.56 17.56 37.6 16.36 34.52 15.64C33.08 15.28 31.56 15.04 29.76 14.88L28.56 14.8C28.28 14.76 28 14.76 27.72 14.76H27.32H26.68H26.32H26.12L24.36 14.84L23.76 14.88C23.4803 14.88 23.2006 14.9191 22.9346 14.9563C22.8202 14.9723 22.7083 14.988 22.6 15C21.8 15.12 21.04 15.24 20.32 15.4H20.24C18.56 15.76 17.08 16.2 15.76 16.68C12.88 17.76 10.24 19.2 7.88 20.96C7.6 21.16 7.32 21.36 7.04 21.6L6.76 21.84C6.68 21.92 6.59 21.99 6.5 22.06C6.41 22.13 6.32 22.2 6.24 22.28L5.92 22.56C5.82333 22.647 5.72433 22.734 5.62468 22.8216C5.312 23.0963 4.993 23.3767 4.72 23.68C3.84 24.52 3 25.48 2.04 26.68C1.56 27.28 1.04 27.92 0.6 28.56V27.56C0.74 27.36 0.89 27.16 1.04 26.96C1.19 26.76 1.34 26.56 1.48 26.36C2.44 25.16 3.32 24.2 4.2 23.32C4.6 22.92 5.04 22.52 5.44 22.16L5.76 21.88C5.86 21.8 5.95 21.72 6.04 21.64C6.13 21.56 6.22 21.48 6.32 21.4L6.6 21.16C6.74162 21.0538 6.87541 20.9476 7.00483 20.8448C7.16784 20.7154 7.32392 20.5915 7.48 20.48C9.88 18.68 12.56 17.2 15.48 16.12C16.8 15.6 18.32 15.2 20.04 14.8L20.16 14.76C20.88 14.6 21.68 14.44 22.44 14.36C22.84 14.28 23.24 14.24 23.64 14.2L24.8 14.08H24.96L26.04 14.04H26.24H26.64H27.28H27.68C28 14.04 28.28 14.04 28.56 14.08L29.76 14.16C31.56 14.32 33.16 14.56 34.6 14.92C37.76 15.64 40.76 16.84 43.56 18.44C43.88 18.6 44.2 18.8 44.56 19.04L44.88 19.24C44.9722 19.3015 45.0644 19.357 45.1544 19.4113C45.2985 19.4981 45.4368 19.5815 45.56 19.68L45.92 19.92C46.0973 20.053 46.2855 20.1859 46.4765 20.3209C46.8027 20.5514 47.1373 20.7877 47.44 21.04C48.56 21.88 49.64 22.84 50.84 24C52.88 26.04 54.6 28.24 56 30.52C57.24 32.56 58.28 34.72 59.08 36.96C59.72 38.68 60.2 40.4 60.56 42.32L60.76 43.4C60.7792 43.515 60.7892 43.63 60.7988 43.7406C60.8092 43.8608 60.8192 43.9758 60.84 44.08L60.88 44.36C60.9304 44.7884 60.9649 45.1374 60.9936 45.4271C61.0104 45.5972 61.0252 45.7468 61.04 45.88L61.16 47.48H56.52H47.84H32.2C32.04 49.6 30.24 51.32 28.04 51.32C25.76 51.32 23.88 49.44 23.88 47.16C23.88 44.88 25.76 43 28.04 43C30.24 43 32.04 44.68 32.2 46.84H47.92L47.96 46.32C48 46.04 48 45.72 48 45.36V44.72L47.96 44C47.92 42.68 47.76 41.56 47.52 40.4C47.2 38.84 46.72 37.32 46.08 35.84C45.36 34.16 44.36 32.52 43.16 30.88C42.4 29.92 41.76 29.16 41.08 28.48C40.8 28.2 40.52 27.92 40.2 27.64C40.14 27.58 40.08 27.53 40.02 27.48C39.96 27.43 39.9 27.38 39.84 27.32C39.72 27.24 39.56 27.12 39.44 27C39.36 26.96 39.28 26.88 39.2 26.8C39.0619 26.6849 38.9237 26.583 38.7932 26.4868C38.697 26.4158 38.6049 26.3479 38.52 26.28C36.64 24.84 34.56 23.64 32.28 22.76C31.24 22.36 30.08 22.04 28.68 21.68L27.76 21.48C27.665 21.461 27.57 21.451 27.4793 21.4415C27.379 21.431 27.284 21.421 27.2 21.4C27.08 21.4 26.96 21.4 26.84 21.36L26.4 21.28C26.28 21.24 26.2 21.24 26.08 21.24H25.88L24.8 21.12L23.92 21.08H23H22.92C22.36 21.04 21.76 21.08 21.2 21.12H20.96C19.48 21.24 18.24 21.44 17.12 21.68C14.6 22.24 12.2 23.16 9.96 24.4C9.72 24.56 9.44 24.72 9.16 24.88C9.08 24.96 8.96 25.04 8.88 25.08C8.82031 25.1158 8.76419 25.1481 8.71056 25.1789C8.5845 25.2513 8.47225 25.3158 8.36 25.4L8 25.64C7.64 25.88 7.24 26.16 6.88 26.44C6 27.12 5.12 27.84 4.12 28.8C2.8 30.12 1.68 31.52 0.68 32.96V31.76C1.6 30.56 2.6 29.36 3.76 28.24C4.76 27.24 5.68 26.48 6.56 25.84C6.82198 25.6071 7.10514 25.4166 7.39407 25.2222C7.50218 25.1495 7.61109 25.0762 7.72 25L8.08 24.76C8.16 24.7 8.25 24.65 8.34 24.6C8.43 24.55 8.52 24.5 8.6 24.44C8.64 24.42 8.69 24.39 8.74 24.36C8.79 24.33 8.84 24.3 8.88 24.28L9.72 23.8C12 22.56 14.48 21.6 17.04 21.04C18.2 20.8 19.44 20.6 20.96 20.48H21.2C21.76 20.44 22.36 20.44 22.96 20.44H23C23.32 20.44 23.64 20.44 23.96 20.48L24.84 20.52L25.92 20.64H26.12C26.18 20.64 26.24 20.65 26.3 20.66C26.36 20.67 26.42 20.68 26.48 20.68L26.92 20.76C26.956 20.76 27 20.7681 27.0485 20.777C27.1079 20.7879 27.1739 20.8 27.24 20.8L27.84 20.92L28.76 21.12C30.2 21.48 31.4 21.84 32.44 22.24C34.76 23.16 36.92 24.36 38.84 25.84C39.04 26 39.28 26.2 39.52 26.4C39.56 26.44 39.6 26.47 39.64 26.5C39.68 26.53 39.72 26.56 39.76 26.6C39.82 26.66 39.89 26.72 39.96 26.78C40.03 26.84 40.1 26.9 40.16 26.96C40.22 27.02 40.28 27.07 40.34 27.12C40.4 27.17 40.46 27.22 40.52 27.28C40.84 27.56 41.16 27.84 41.44 28.16C42.16 28.84 42.84 29.64 43.6 30.64C44.88 32.32 45.88 34.04 46.6 35.76C47.24 37.28 47.76 38.84 48.08 40.44ZM28.04 50.88C30 50.88 31.6 49.28 31.6 47.32C31.6 45.36 30 43.76 28.04 43.76C26.08 43.76 24.48 45.36 24.48 47.32C24.48 49.28 26.08 50.88 28.04 50.88Z" fill="white"/>
</svg>
