<svg width="80" height="80" viewBox="0 0 80 80" fill="none" xmlns="http://www.w3.org/2000/svg">
<rect width="80" height="80" fill="#141414"/>
<path d="M18.2398 56.3599C19.8398 56.3599 21.1598 55.0399 21.1598 53.4399V46.8399C21.1598 45.2399 19.8398 43.9199 18.2398 43.9199C16.6398 43.9199 15.3198 45.2399 15.3198 46.8399V53.4399C15.3198 55.0399 16.6398 56.3599 18.2398 56.3599ZM15.9198 46.8399C15.9198 45.5599 16.9598 44.5199 18.2398 44.5199C19.5198 44.5199 20.5598 45.5599 20.5598 46.8399V53.4399C20.5598 54.7199 19.5198 55.7599 18.2398 55.7599C16.9598 55.7599 15.9198 54.7199 15.9198 53.4399V46.8399Z" fill="white"/>
<path fill-rule="evenodd" clip-rule="evenodd" d="M4.88 26.56V33.28H32.16V26.56C32.16 19.04 26.04 12.92 18.52 12.92C11 12.92 4.88 19.04 4.88 26.56ZM40.48 37.88C40.48 35.68 38.68 33.88 36.48 33.88H0.6V33.28H4.28V26.56C4.28 18.72 10.68 12.32 18.52 12.32C26.36 12.32 32.76 18.72 32.76 26.56V33.28H36.48C39.04 33.28 41.12 35.36 41.12 37.92V62.2C41.12 64.76 39.04 66.84 36.48 66.84H0.6V66.16H36.48C38.68 66.16 40.48 64.36 40.48 62.16V37.88Z" fill="white"/>
</svg>
