<svg width="48" height="33" viewBox="0 0 48 33" fill="none" xmlns="http://www.w3.org/2000/svg">
<path d="M30.6119 27.1518C30.5825 27.9796 28.9243 29.0851 26.4997 29.0851C24.0751 29.0851 12.9936 24.7486 10.2379 20.4629C6.58768 14.7859 2.81195 13.1918 0.726484 11.9341C-1.35898 10.6764 1.43143 3.40532 4.22451 1.28781C7.01759 -0.829694 8.15244 3.00478 11.4662 2.14763C14.78 1.29048 20.5771 1.99543 22.8789 2.72975C25.1806 3.46673 40.9511 13.1304 40.8283 16.6578C40.7054 20.1852 40.1233 21.782 37.5759 21.8434C37.5759 21.8434 37.883 24.6044 34.1713 24.6658C34.1713 24.6685 34.1259 27.7366 30.6119 27.1518Z" fill="url(#paint0_linear_31_2157)"/>
<path d="M36.362 18.3077C35.1764 18.5133 28.9387 14.508 27.179 14.6068C24.9707 14.7296 28.8079 15.787 32.0255 17.6135C36.2792 20.0274 38.4074 22.3371 34.418 23.3812C33.3152 23.6696 27.6036 18.743 24.2311 19.0234C23.4941 19.0848 26.6743 20.6495 30.1937 22.8899C33.7131 25.1302 31.932 25.926 30.1216 25.7444C28.3112 25.5628 22.0842 22.0941 20.5808 22.3692C19.0775 22.6442 23.6169 23.7497 27.2084 26.0194C29.0508 27.1836 25.9614 27.7684 22.5194 28.0595C24.3085 28.703 25.7851 29.0875 26.5008 29.0875C28.9253 29.0875 30.5809 27.982 30.6129 27.1543C34.127 27.7364 34.1724 24.6683 34.1724 24.6683C37.884 24.6069 37.5769 21.8458 37.5769 21.8458C40.1244 21.7844 40.7065 20.1903 40.8293 16.6602C40.832 16.5587 40.8213 16.4493 40.7973 16.3371L38.1591 14.7483C38.7332 16.7937 37.5476 18.1021 36.362 18.3077Z" fill="url(#paint1_linear_31_2157)"/>
<path d="M34.0877 25.2182C33.6685 24.807 33.2172 24.3877 32.6965 23.9605C21.5295 14.7829 19.9941 21.6641 14.7791 18.1661C9.56414 14.668 12.8779 10.8629 8.39724 10.6173C4.46931 10.401 2.19159 8.20337 1.31842 5.30615C0.0180091 8.05117 -0.569445 11.154 0.725625 11.9364C2.81109 13.1941 6.58682 14.7909 10.237 20.4651C12.9927 24.7482 24.0743 29.0874 26.4988 29.0874C28.9234 29.0874 30.579 27.9819 30.611 27.1541C33.1691 27.576 33.8874 26.07 34.0877 25.2182Z" fill="url(#paint2_linear_31_2157)"/>
<path d="M27.3184 14.9114C29.3558 15.5496 31.281 16.5082 33.1368 17.5549C34.0581 18.0916 34.9659 18.6551 35.8631 19.2238C36.8725 19.7205 37.3665 20.8286 37.5774 21.8433C37.273 20.8393 36.7417 19.822 35.7644 19.384C34.8431 18.8473 33.9406 18.2839 33.014 17.7659C31.1769 16.6978 29.2837 15.7365 27.3184 14.9114Z" fill="#804B24"/>
<path d="M24.9062 19.2693C26.5938 19.8834 28.1666 20.77 29.7047 21.6832C30.4657 22.1558 31.2241 22.6338 31.9664 23.1358L34.172 24.6685C32.6046 23.798 31.1172 22.802 29.5792 21.8915C28.8208 21.4188 28.0465 20.9729 27.2721 20.5296C26.495 20.0917 25.7127 19.6591 24.9062 19.2693Z" fill="#804B24"/>
<path d="M20.9766 22.6123C22.6829 23.1277 24.3117 23.8593 25.9192 24.615C27.5133 25.4 29.0968 26.2171 30.6108 27.1517C27.3985 25.627 24.2449 24.0088 20.9766 22.6123Z" fill="#804B24"/>
<path d="M30.1921 27.8994C12.5551 25.7925 11.2814 18.0595 9.23869 15.3626C7.19328 12.6629 9.19863 10.5775 7.52172 11.3118C6.05308 11.9553 2.51767 12.444 0.0957607 9.10083C-0.107178 10.4333 0.0396855 11.5174 0.731279 11.9366C2.81674 13.1943 6.59247 14.7911 10.2427 20.4654C12.9984 24.7485 24.0799 29.0876 26.5045 29.0876C28.2295 29.085 29.5566 28.5215 30.1921 27.8994Z" fill="url(#paint3_linear_31_2157)"/>
<path d="M16.4977 1.7844C14.6792 1.70696 12.8554 1.78707 11.4696 2.14756C8.37209 2.9513 7.17849 -0.346457 4.75391 0.948613C6.99424 0.967305 7.46955 3.60551 10.2226 3.53608C12.0704 3.49069 13.8915 3.10617 15.5177 3.02072C15.798 2.6015 16.1211 2.17693 16.4977 1.7844Z" fill="url(#paint4_linear_31_2157)"/>
<path d="M39.968 20.7431C40.5475 19.902 40.7638 18.5749 40.8305 16.6603C40.9533 13.1329 25.1829 3.4666 22.8811 2.73228C21.4685 2.28101 18.7369 1.84042 16.072 1.76832C15.8263 1.76031 12.5312 6.19826 12.5926 7.67224C12.6407 8.85783 13.4845 10.4653 16.4965 10.4653C19.5086 10.4653 20.0159 6.55875 21.5914 6.11815C24.0881 5.42389 26.5847 10.0568 30.0187 11.6536C33.4553 13.2477 37.6262 14.954 38.0348 15.6509C38.43 16.3158 40.3258 18.2705 39.968 20.7431Z" fill="url(#paint5_linear_31_2157)"/>
<path d="M14.5969 9.26649C13.1229 8.40667 13.3686 6.75112 14.1056 5.5228C14.8426 4.29449 16.4073 0.000732422 20.4554 0.000732422C24.0763 0.000732422 27.123 2.12358 29.3847 3.00743C31.2459 3.73374 33.3741 4.90865 34.9068 4.90865C36.4395 4.90865 39.2379 3.39462 40.1832 2.63894C40.8988 2.0675 42.76 2.57752 45.521 7.60827C48.2821 12.639 47.3608 13.6831 45.9509 14.0516C44.5384 14.4201 42.5143 14.9728 42.023 16.5055C41.5317 18.0383 40.6371 18.882 40.6371 18.882C40.6371 18.882 39.3367 15.6297 37.2993 14.2972C33.9241 12.0889 30.9789 10.8606 29.3233 9.63498C27.6677 8.40667 23.4942 5.09289 21.7745 5.09289C20.0549 5.09289 17.7878 10.922 14.5969 9.26649Z" fill="url(#paint6_linear_31_2157)"/>
<path d="M40.6364 18.8848C40.6364 18.8848 41.5336 18.041 42.0223 16.5083C42.5136 14.9756 44.5376 14.4228 45.9502 14.0543C47.0931 13.7553 47.9102 13.0156 46.7192 10.0783C41.3387 8.94883 43.2265 18.4389 38.8527 13.2346C34.3106 7.83533 30.7538 8.85804 29.1997 7.99822C27.6457 7.1384 23.6456 4.23584 21.683 4.23584C19.7204 4.23584 18.5241 9.81933 14.0781 8.85537C14.2223 9.0049 14.3879 9.14642 14.5962 9.26659C17.7871 10.9221 20.0568 5.09299 21.7764 5.09299C23.4961 5.09299 27.667 8.40677 29.3252 9.63508C30.9808 10.8634 33.9261 12.089 37.3013 14.2973C39.336 15.6298 40.6364 18.8848 40.6364 18.8848Z" fill="url(#paint7_linear_31_2157)"/>
<path d="M19.9654 31.2961C18.2511 31.1946 17.7518 29.2854 18.3099 27.7072C19.0763 25.5283 20.5903 25.2373 21.4074 25.2533C22.2245 25.2693 23.7065 25.8941 23.3086 27.9529C23.0069 29.5364 22.5422 31.4483 19.9654 31.2961Z" fill="url(#paint8_linear_31_2157)"/>
<path d="M25.2043 32.1105C24.1336 32.1105 22.9613 31.7687 23.0628 28.6926C23.1643 25.6164 24.9026 25.6511 25.3726 25.6511C25.8425 25.6511 27.5141 26.1985 27.5141 28.7967C27.5141 31.3922 26.4754 32.1105 25.2043 32.1105Z" fill="url(#paint9_linear_31_2157)"/>
<path d="M22.722 29.8754C21.9503 29.9715 20.7299 30.0196 20.0384 29.5149C19.1759 28.8847 19.3975 26.7405 20.1425 25.5068C19.4696 25.8032 18.762 26.4227 18.3107 27.7045C17.7553 29.2852 18.252 31.1918 19.9663 31.2933C21.499 31.3867 22.2734 30.7405 22.722 29.8754Z" fill="url(#paint10_linear_31_2157)"/>
<path d="M27.5148 28.794C27.5148 28.2679 27.4347 27.846 27.3199 27.4775C27.1303 28.4842 26.1797 30.292 25.1917 30.292C24.3212 30.292 23.6296 30.057 23.0742 28.5002C23.0715 28.5643 23.0635 28.6231 23.0608 28.6898C22.9594 31.766 24.1316 32.1077 25.2024 32.1077C26.4761 32.1104 27.5148 31.3921 27.5148 28.794Z" fill="url(#paint11_linear_31_2157)"/>
<path d="M11.1741 25.7899C9.45448 24.9889 9.09666 23.1811 10.1861 20.8313C11.2756 18.4815 12.9338 19.0956 13.7509 19.4775C14.568 19.8593 16.0099 21.5896 15.102 23.5469C14.1942 25.5042 12.5653 26.4388 11.1741 25.7899Z" fill="url(#paint12_linear_31_2157)"/>
<path d="M14.7835 28.7699C13.2775 27.7846 13.4457 25.6938 15.0639 23.3947C16.6821 21.0956 18.108 22.0035 18.7942 22.5349C19.4805 23.0663 20.5005 25.1945 19.0773 27.0316C17.9851 28.4442 17.0078 30.2226 14.7835 28.7699Z" fill="url(#paint13_linear_31_2157)"/>
<path d="M11.7014 24.8713C10.3583 24.2438 10.4864 20.8018 12.0005 19.1516C11.3703 19.2664 10.7134 19.7017 10.19 20.8339C9.10057 23.1837 9.45838 24.9914 11.178 25.7925C12.5692 26.4414 14.1981 25.5068 15.106 23.5495C15.1033 23.5442 13.2982 25.6136 11.7014 24.8713Z" fill="url(#paint14_linear_31_2157)"/>
<path d="M14.7865 28.7674C15.9588 29.5337 16.7839 29.3976 17.4621 28.8956C16.386 28.8608 14.8827 28.2921 14.8827 26.754C14.8827 24.9195 16.0496 22.9169 18.1724 22.1291C17.4034 21.7473 16.2899 21.6512 15.0669 23.3922C13.4487 25.6939 13.2778 27.7847 14.7865 28.7674Z" fill="url(#paint15_linear_31_2157)"/>
<path d="M10.1875 20.8313C10.4839 20.1851 10.9085 19.5336 11.5921 19.2238C12.281 18.9168 13.0794 19.0823 13.7256 19.3894C14.4038 19.7178 14.8871 20.3266 15.1969 20.9915C15.504 21.6644 15.5627 22.4522 15.3491 23.1651C15.3357 23.2132 15.285 23.2399 15.2369 23.2265C15.2263 23.2239 15.2156 23.2159 15.2076 23.2105L15.2049 23.2078C15.1648 23.1785 15.1568 23.1197 15.1889 23.0797C15.6775 22.4655 16.3344 21.8247 17.2103 21.798C17.6348 21.7766 18.0487 21.9181 18.4038 22.1211C18.751 22.3187 19.1008 22.5857 19.3224 22.9435C19.7737 23.6351 19.9766 24.4762 19.8965 25.2933C19.8858 25.3948 19.8752 25.4989 19.8511 25.5977L19.8218 25.7499V25.7553C19.9713 25.8594 19.6188 25.6191 19.6562 25.6431L19.6642 25.6378L19.6802 25.6271L19.7123 25.6057L19.779 25.5657C19.9579 25.4615 20.1449 25.3761 20.3398 25.3093C20.7323 25.1785 21.1435 25.1251 21.5574 25.1598C22.3798 25.2319 23.1756 25.8113 23.3759 26.6364C23.4079 26.7352 23.4212 26.8367 23.4373 26.9382L23.4426 26.9756L23.4453 26.9943V26.9996C23.48 27.0076 23.1515 26.9595 23.2904 26.9756L23.2931 26.9676L23.3251 26.8981L23.3892 26.7593C23.4827 26.5777 23.5895 26.3988 23.7283 26.2466C23.9927 25.9288 24.3772 25.7152 24.7777 25.6324C25.5868 25.4055 26.4627 25.8567 26.9086 26.5136C27.3892 27.1758 27.5254 28.0036 27.5174 28.7913C27.4987 28.0036 27.3305 27.1838 26.8418 26.5617C26.3639 25.9448 25.5761 25.5497 24.8044 25.7659C24.4306 25.8487 24.0835 26.049 23.8405 26.3454C23.715 26.4896 23.6162 26.6578 23.5307 26.8287L23.472 26.9622L23.4426 27.029L23.4399 27.037C23.5788 27.0557 23.2503 27.0156 23.2824 27.0183V27.0129L23.2797 26.9943L23.2744 26.9595C23.2584 26.8661 23.245 26.77 23.2156 26.6792C23.026 25.9262 22.2971 25.4135 21.5387 25.3521C21.1595 25.3254 20.767 25.3788 20.4065 25.5043C20.225 25.5683 20.0514 25.6484 19.8885 25.7472L19.8271 25.7873L19.7977 25.806L19.7817 25.8167L19.7737 25.822C19.8084 25.8487 19.4586 25.6031 19.6081 25.7045V25.6992L19.6348 25.5577C19.6562 25.4642 19.6642 25.3681 19.6722 25.2719C19.7416 24.5056 19.5254 23.7205 19.1195 23.0743C18.9219 22.7459 18.6255 22.5162 18.289 22.3133C17.9606 22.1184 17.5921 21.9929 17.2156 22.0062C16.4439 22.0142 15.8137 22.5937 15.3304 23.1892L15.3144 23.061L15.317 23.0636L15.1729 23.109C15.3811 22.4388 15.3384 21.6992 15.0527 21.053C14.767 20.4148 14.2997 19.8166 13.6722 19.5069C13.0367 19.2051 12.2917 19.0182 11.6214 19.2879C10.9539 19.5656 10.5053 20.1931 10.1875 20.8313Z" fill="#804B24"/>
<path d="M18.7987 22.5349C18.294 22.1932 17.7066 21.9288 17.1218 22.0036C16.5397 22.0757 16.0377 22.4442 15.6371 22.8821C15.2259 23.3173 14.8948 23.8354 14.5797 24.3534C14.2753 24.8768 14.0029 25.4268 13.832 26.0196C13.9148 25.4081 14.1311 24.8153 14.4141 24.2626C14.7025 23.7125 15.039 23.1892 15.4582 22.7165C15.8908 22.2733 16.4462 21.8594 17.1058 21.8193C17.768 21.7713 18.3528 22.1264 18.7987 22.5349Z" fill="#804B24"/>
<path d="M19.45 23.4294C19.9573 24.2732 20.0508 25.3894 19.6422 26.324C19.4366 26.794 19.1028 27.1785 18.8038 27.555C18.4967 27.9368 18.1736 28.316 17.7891 28.6231C18.1095 28.2519 18.3738 27.8434 18.6542 27.4428C18.9319 27.0343 19.247 26.6685 19.4206 26.2279C19.8158 25.3627 19.765 24.3533 19.45 23.4294Z" fill="#804B24"/>
<path d="M22.6421 25.6831C23.0079 25.9047 23.2936 26.2812 23.4058 26.7138C23.5286 27.1437 23.4965 27.5977 23.4245 28.0222C23.2509 28.842 23.0399 29.7392 22.4258 30.3641C22.6528 30.0009 22.7969 29.6057 22.9118 29.2052C23.0239 28.802 23.112 28.3934 23.1841 27.9768C23.3684 27.1784 23.2803 26.2839 22.6421 25.6831Z" fill="#804B24"/>
<path d="M21.2508 0.056807C20.9865 0.035445 20.7275 0.000732422 20.4578 0.000732422C16.407 0.000732422 14.8422 4.29716 14.1079 5.5228C13.4751 6.57488 13.2214 7.93671 14.0892 8.84726C14.1773 8.94072 14.0919 8.49746 13.921 8.05153C13.5472 7.07956 14.7728 1.67231 21.2508 0.056807Z" fill="url(#paint16_linear_31_2157)"/>
<path d="M20.457 0.00070076C19.4984 0.00604125 18.5451 0.283747 17.7467 0.801775C16.9403 1.31446 16.2834 2.02475 15.736 2.80179C15.1886 3.58417 14.756 4.43331 14.3181 5.28779C13.8268 6.09154 13.4422 7.03146 13.6665 7.95003C13.776 8.39596 14.0564 8.79383 14.4356 9.05551C14.8174 9.31719 15.2794 9.43736 15.7333 9.4694C16.6679 9.44804 17.4877 8.86325 18.1686 8.22506C18.8602 7.57352 19.4503 6.82051 20.1018 6.11023C20.4276 5.75776 20.7667 5.39994 21.2127 5.14894C21.6826 4.86322 22.2487 5.01276 22.6893 5.16763C24.5051 5.89928 26.0351 7.08487 27.5865 8.2037C28.3609 8.76712 29.1032 9.38395 29.891 9.90999C30.6867 10.4307 31.5332 10.882 32.3716 11.3412C34.0566 12.2518 35.7361 13.1837 37.3329 14.2438C38.134 14.7965 38.7615 15.5496 39.2956 16.3426C39.8243 17.1437 40.2756 17.9955 40.6387 18.8794C39.8483 17.1597 38.8443 15.424 37.2662 14.3426C35.6614 13.2985 33.9818 12.3826 32.2915 11.4828C31.4477 11.0288 30.5986 10.5829 29.7895 10.0595C28.9804 9.52547 28.2434 8.922 27.4637 8.36391C25.915 7.2611 24.3609 6.08619 22.6065 5.3946C22.1686 5.23973 21.7013 5.1169 21.3221 5.35188C20.9296 5.56817 20.5905 5.91263 20.2674 6.25709C19.6185 6.95136 19.0204 7.70704 18.3101 8.36659C17.6132 9.01012 16.7534 9.62694 15.736 9.64563C15.2393 9.60825 14.748 9.47474 14.3394 9.19169C13.9336 8.90864 13.6265 8.47073 13.5117 7.98474C13.2767 6.99408 13.7039 6.0141 14.1953 5.2157C14.6358 4.36923 15.0791 3.50941 15.6399 2.72702C16.2086 1.95265 16.8922 1.24504 17.7173 0.7457C18.5344 0.243694 19.4984 -0.0153207 20.457 0.00070076Z" fill="#804B24"/>
<path opacity="0.75" d="M20.2568 1.29037C21.2475 1.9526 20.5078 4.01937 19.2635 6.00603C18.2461 7.62954 16.1847 8.83649 15.2341 8.16626C14.2835 7.49336 13.5705 6.71097 15.923 3.48799C17.3088 1.58944 19.2875 0.644174 20.2568 1.29037Z" fill="url(#paint17_radial_31_2157)"/>
<path opacity="0.75" d="M7.21561 2.16895C8.93258 2.86588 8.91122 5.30649 8.14753 7.68835C7.52269 9.63763 5.22628 11.1757 3.56004 10.4627C1.89381 9.75245 0.507952 8.8953 2.21958 5.00742C3.22359 2.71902 5.53603 1.48804 7.21561 2.16895Z" fill="url(#paint18_radial_31_2157)"/>
<path opacity="0.75" d="M34.0446 7.18363C33.4118 8.19031 30.9124 8.03009 28.4371 7.41594C26.413 6.91393 24.7308 5.41859 25.3796 4.44395C26.0285 3.46931 26.8429 2.67358 30.9017 3.95797C33.2969 4.71365 34.6641 6.20097 34.0446 7.18363Z" fill="url(#paint19_radial_31_2157)"/>
<path opacity="0.75" d="M42.6052 11.2238C41.0031 11.9714 39.0538 10.6924 37.6039 8.96473C36.4209 7.5495 36.5785 5.26911 38.1619 4.5615C39.7454 3.85388 41.2781 3.40261 43.3609 6.52146C44.5919 8.36126 44.1727 10.4921 42.6052 11.2238Z" fill="url(#paint20_radial_31_2157)"/>
<defs>
<linearGradient id="paint0_linear_31_2157" x1="14.944" y1="25.2053" x2="24.1074" y2="5.73319" gradientUnits="userSpaceOnUse">
<stop offset="0.00132565" stop-color="#FFCB4B"/>
<stop offset="1" stop-color="#FFD748"/>
</linearGradient>
<linearGradient id="paint1_linear_31_2157" x1="23.527" y1="15.6227" x2="51.3852" y2="38.1425" gradientUnits="userSpaceOnUse">
<stop stop-color="#FFBC47" stop-opacity="0"/>
<stop offset="1" stop-color="#C86F34"/>
</linearGradient>
<linearGradient id="paint2_linear_31_2157" x1="13.4035" y1="24.4804" x2="22.5668" y2="5.00827" gradientUnits="userSpaceOnUse">
<stop stop-color="#FFBB47" stop-opacity="0.9686"/>
<stop offset="0.0026513" stop-color="#FFBA47"/>
<stop offset="1" stop-color="#FFD748" stop-opacity="0"/>
</linearGradient>
<linearGradient id="paint3_linear_31_2157" x1="18.4676" y1="8.1671" x2="7.83155" y2="41.2206" gradientUnits="userSpaceOnUse">
<stop stop-color="#FFBC47" stop-opacity="0"/>
<stop offset="1" stop-color="#C86F34"/>
</linearGradient>
<linearGradient id="paint4_linear_31_2157" x1="5.82433" y1="9.34249" x2="20.3057" y2="-14.7113" gradientUnits="userSpaceOnUse">
<stop stop-color="#FFBC47" stop-opacity="0"/>
<stop offset="1" stop-color="#C86F34"/>
</linearGradient>
<linearGradient id="paint5_linear_31_2157" x1="25.5225" y1="17.4641" x2="31.045" y2="-4.07379" gradientUnits="userSpaceOnUse">
<stop stop-color="#FFBC47" stop-opacity="0"/>
<stop offset="1" stop-color="#C86F34"/>
</linearGradient>
<linearGradient id="paint6_linear_31_2157" x1="41.5488" y1="10.4026" x2="10.2953" y2="7.62088" gradientUnits="userSpaceOnUse">
<stop offset="0.00132565" stop-color="#FFCB4B"/>
<stop offset="1" stop-color="#FFD748"/>
</linearGradient>
<linearGradient id="paint7_linear_31_2157" x1="31.4868" y1="-5.15218" x2="29.2778" y2="38.7828" gradientUnits="userSpaceOnUse">
<stop stop-color="#FFBC47" stop-opacity="0"/>
<stop offset="1" stop-color="#C86F34"/>
</linearGradient>
<linearGradient id="paint8_linear_31_2157" x1="20.2807" y1="29.1996" x2="22.7351" y2="24.4543" gradientUnits="userSpaceOnUse">
<stop offset="0.00132565" stop-color="#FFCB4B"/>
<stop offset="1" stop-color="#FFD748"/>
</linearGradient>
<linearGradient id="paint9_linear_31_2157" x1="24.1043" y1="31.1774" x2="26.5587" y2="26.4321" gradientUnits="userSpaceOnUse">
<stop offset="0.00132565" stop-color="#FFCB4B"/>
<stop offset="1" stop-color="#FFD748"/>
</linearGradient>
<linearGradient id="paint10_linear_31_2157" x1="25.3493" y1="28.4474" x2="10.0702" y2="28.3247" gradientUnits="userSpaceOnUse">
<stop stop-color="#FFBC47" stop-opacity="0"/>
<stop offset="1" stop-color="#C86F34"/>
</linearGradient>
<linearGradient id="paint11_linear_31_2157" x1="28.9875" y1="24.407" x2="12.1744" y2="47.6017" gradientUnits="userSpaceOnUse">
<stop stop-color="#FFBC47" stop-opacity="0"/>
<stop offset="1" stop-color="#C86F34"/>
</linearGradient>
<linearGradient id="paint12_linear_31_2157" x1="10.2731" y1="24.1511" x2="15.1985" y2="20.3979" gradientUnits="userSpaceOnUse">
<stop offset="0.00132565" stop-color="#FFCB4B"/>
<stop offset="1" stop-color="#FFD748"/>
</linearGradient>
<linearGradient id="paint13_linear_31_2157" x1="16.0042" y1="27.244" x2="18.8236" y2="21.7931" gradientUnits="userSpaceOnUse">
<stop offset="0.00132565" stop-color="#FFCB4B"/>
<stop offset="1" stop-color="#FFD748"/>
</linearGradient>
<linearGradient id="paint14_linear_31_2157" x1="19.721" y1="23.3927" x2="-2.24649" y2="21.0609" gradientUnits="userSpaceOnUse">
<stop stop-color="#FFBC47" stop-opacity="0"/>
<stop offset="1" stop-color="#C86F34"/>
</linearGradient>
<linearGradient id="paint15_linear_31_2157" x1="22.1204" y1="18.0646" x2="3.10339" y2="44.2997" gradientUnits="userSpaceOnUse">
<stop stop-color="#FFBC47" stop-opacity="0"/>
<stop offset="1" stop-color="#C86F34"/>
</linearGradient>
<linearGradient id="paint16_linear_31_2157" x1="15.0834" y1="-3.2504" x2="22.4614" y2="19.6447" gradientUnits="userSpaceOnUse">
<stop stop-color="#FFBC47" stop-opacity="0"/>
<stop offset="1" stop-color="#C86F34"/>
</linearGradient>
<radialGradient id="paint17_radial_31_2157" cx="0" cy="0" r="1" gradientUnits="userSpaceOnUse" gradientTransform="translate(17.6612 4.665) rotate(-53.846) scale(4.36984 2.12887)">
<stop stop-color="#FBE07A"/>
<stop offset="0.2654" stop-color="#FCDF73" stop-opacity="0.7346"/>
<stop offset="0.6548" stop-color="#FDDB5F" stop-opacity="0.3452"/>
<stop offset="1" stop-color="#FFD748" stop-opacity="0"/>
</radialGradient>
<radialGradient id="paint18_radial_31_2157" cx="0" cy="0" r="1" gradientUnits="userSpaceOnUse" gradientTransform="translate(5.23016 6.2565) rotate(-66.2167) scale(4.6534 3.31211)">
<stop stop-color="#FBE07A"/>
<stop offset="0.2654" stop-color="#FCDF73" stop-opacity="0.7346"/>
<stop offset="0.6548" stop-color="#FDDB5F" stop-opacity="0.3452"/>
<stop offset="1" stop-color="#FFD748" stop-opacity="0"/>
</radialGradient>
<radialGradient id="paint19_radial_31_2157" cx="0" cy="0" r="1" gradientUnits="userSpaceOnUse" gradientTransform="translate(29.7722 5.72642) rotate(17.5529) scale(4.66415 2.05807)">
<stop stop-color="#FBE07A"/>
<stop offset="0.2654" stop-color="#FCDF73" stop-opacity="0.7346"/>
<stop offset="0.6548" stop-color="#FDDB5F" stop-opacity="0.3452"/>
<stop offset="1" stop-color="#FFD748" stop-opacity="0"/>
</radialGradient>
<radialGradient id="paint20_radial_31_2157" cx="0" cy="0" r="1" gradientUnits="userSpaceOnUse" gradientTransform="translate(40.5305 7.83275) rotate(56.3078) scale(4.10982 3.12817)">
<stop stop-color="#FBE07A"/>
<stop offset="0.2654" stop-color="#FCDF73" stop-opacity="0.7346"/>
<stop offset="0.6548" stop-color="#FDDB5F" stop-opacity="0.3452"/>
<stop offset="1" stop-color="#FFD748" stop-opacity="0"/>
</radialGradient>
</defs>
</svg>
