<?xml version="1.0" encoding="utf-8"?>
<!-- Generator: Adobe Illustrator 23.0.0, SVG Export Plug-In . SVG Version: 6.00 Build 0)  -->
<svg version="1.1" id="Слой_1" xmlns="http://www.w3.org/2000/svg" xmlns:xlink="http://www.w3.org/1999/xlink" x="0px" y="0px"
	 width="135px" height="44px" viewBox="0 0 135 44" style="enable-background:new 0 0 135 44;" xml:space="preserve">
<style type="text/css">
	.st0{fill:#585858;}
	.st1{fill:#FFFFFF;}
	.st2{display:none;fill:#FFFFFF;}
	.st3{font-family:'Roboto-Regular';}
	.st4{font-size:10.7244px;}
	.st5{font-family:'Roboto-Bold';}
	.st6{font-size:19.5098px;}
</style>
<path d="M130,44H5c-2.7,0-5-2.5-5-5.5v-33C0,2.5,2.3,0,5,0h125c2.7,0,5,2.5,5,5.5v33C135,41.5,132.7,44,130,44z"/>
<path class="st0" d="M130,0.9c2.3,0,4.2,2.1,4.2,4.6v33c0,2.5-1.9,4.6-4.2,4.6H5c-2.3,0-4.2-2.1-4.2-4.6v-33C0.8,3,2.7,0.9,5,0.9
	H130z M130,0H5C2.3,0,0,2.5,0,5.5v33c0,3,2.3,5.5,5,5.5h125c2.7,0,5-2.5,5-5.5v-33C135,2.5,132.7,0,130,0z"/>
<title></title>
<g id="apk">
	<g>
		<polygon class="st1" points="14.8,21.9 14.3,23.4 15.4,23.4 		"/>
		<path class="st1" d="M27.2,27c0.6,0,1-0.4,1-1v-6c0-0.6-0.4-1-1-1h-17c-0.6,0-1,0.4-1,1v6c0,0.6,0.4,1,1,1H27.2z M21,21h0.8v1.7
			l1.6-1.7h1.1L23,22.5l1.6,2.4h-1l-1.1-1.8l-0.6,0.7v1.2H21L21,21z M17.3,21h1.3c0.3,0,0.6,0,0.9,0.1c0.2,0.1,0.4,0.2,0.6,0.4
			c0.2,0.2,0.2,0.5,0.2,0.8c0,0.2,0,0.4-0.1,0.6c-0.1,0.2-0.2,0.3-0.3,0.4c-0.1,0.1-0.3,0.2-0.4,0.2c-0.3,0-0.5,0.1-0.8,0.1h-0.5
			v1.5h-0.8L17.3,21z M14.4,21h0.8l1.6,3.9H16l-0.3-0.9H14l-0.3,0.9h-0.8L14.4,21z"/>
		<path class="st1" d="M19.1,22.7c0.1,0,0.2-0.1,0.2-0.2c0.1-0.1,0.1-0.2,0.1-0.3c0-0.1,0-0.3-0.1-0.4c-0.1-0.1-0.2-0.2-0.3-0.2
			c-0.2,0-0.4,0-0.6,0h-0.4v1.1h0.4C18.7,22.8,18.9,22.8,19.1,22.7z"/>
		<path class="st1" d="M29.2,7h-17c-1.1,0-2,0.9-2,2v9h1V9c0-0.6,0.4-1,1-1h17c0.6,0,1,0.4,1,1v20.9c0,0,0,0.1,0,0.1h-4.5
			c-0.8,0-1.5,0.7-1.5,1.5V36c0,0-0.1,0-0.1,0H12.2c-0.6,0-1-0.4-1-1v-7h-1v7c0,1.1,0.9,2,2,2h11.9c0.5,0,1-0.2,1.4-0.6l5.1-5.1
			c0.4-0.4,0.6-0.9,0.6-1.4V9C31.2,7.9,30.3,7,29.2,7z"/>
	</g>
</g>
<text transform="matrix(1 0 0 1 41.3525 14.6895)" class="st2 st3 st4">Download</text>
<text transform="matrix(1 0 0 1 40.2188 33.1221)" class="st2 st5 st6">APK file</text>
<g>
	<path class="st1" d="M42.2,14.7V7.1h2.2c0.7,0,1.3,0.1,1.8,0.4c0.5,0.3,0.9,0.7,1.2,1.3c0.3,0.5,0.4,1.2,0.4,1.9v0.5
		c0,0.7-0.1,1.3-0.4,1.9c-0.3,0.5-0.7,1-1.2,1.2c-0.5,0.3-1.1,0.4-1.8,0.4H42.2z M43.2,7.9v6h1.1c0.8,0,1.4-0.2,1.8-0.7
		c0.4-0.5,0.6-1.2,0.6-2.1v-0.4c0-0.9-0.2-1.5-0.6-2s-1-0.7-1.7-0.7H43.2z"/>
	<path class="st1" d="M48.9,11.8c0-0.6,0.1-1.1,0.3-1.5s0.5-0.8,0.9-1c0.4-0.2,0.8-0.4,1.3-0.4c0.8,0,1.4,0.3,1.9,0.8
		c0.5,0.5,0.7,1.2,0.7,2.1v0.1c0,0.6-0.1,1-0.3,1.5c-0.2,0.4-0.5,0.8-0.9,1c-0.4,0.2-0.8,0.4-1.4,0.4c-0.8,0-1.4-0.3-1.9-0.8
		S48.9,12.8,48.9,11.8L48.9,11.8z M49.8,11.9c0,0.6,0.1,1.1,0.4,1.5c0.3,0.4,0.7,0.6,1.2,0.6c0.5,0,0.9-0.2,1.2-0.6
		c0.3-0.4,0.4-0.9,0.4-1.6c0-0.6-0.1-1.1-0.4-1.5s-0.7-0.6-1.2-0.6c-0.5,0-0.9,0.2-1.2,0.6C50,10.7,49.8,11.2,49.8,11.9z"/>
	<path class="st1" d="M60.3,13.4L61.3,9h1l-1.6,5.7h-0.8l-1.4-4.3l-1.3,4.3h-0.8L54.7,9h1l1.1,4.2L58.1,9h0.8L60.3,13.4z"/>
	<path class="st1" d="M64.2,9l0,0.7c0.4-0.5,1-0.8,1.7-0.8c1.2,0,1.8,0.7,1.8,2v3.7h-1v-3.7c0-0.4-0.1-0.7-0.3-0.9
		c-0.2-0.2-0.5-0.3-0.9-0.3c-0.3,0-0.6,0.1-0.8,0.3s-0.4,0.4-0.6,0.7v4h-1V9H64.2z"/>
	<path class="st1" d="M70.3,14.7h-1v-8h1V14.7z"/>
	<path class="st1" d="M71.6,11.8c0-0.6,0.1-1.1,0.3-1.5s0.5-0.8,0.9-1c0.4-0.2,0.8-0.4,1.3-0.4c0.8,0,1.4,0.3,1.9,0.8
		c0.5,0.5,0.7,1.2,0.7,2.1v0.1c0,0.6-0.1,1-0.3,1.5c-0.2,0.4-0.5,0.8-0.9,1c-0.4,0.2-0.8,0.4-1.4,0.4c-0.8,0-1.4-0.3-1.9-0.8
		S71.6,12.8,71.6,11.8L71.6,11.8z M72.5,11.9c0,0.6,0.1,1.1,0.4,1.5c0.3,0.4,0.7,0.6,1.2,0.6c0.5,0,0.9-0.2,1.2-0.6
		c0.3-0.4,0.4-0.9,0.4-1.6c0-0.6-0.1-1.1-0.4-1.5c-0.3-0.4-0.7-0.6-1.2-0.6c-0.5,0-0.9,0.2-1.2,0.6C72.7,10.7,72.5,11.2,72.5,11.9z"
		/>
	<path class="st1" d="M81.4,14.7c-0.1-0.1-0.1-0.3-0.1-0.6c-0.5,0.5-1,0.7-1.6,0.7c-0.6,0-1-0.2-1.4-0.5s-0.5-0.7-0.5-1.2
		c0-0.6,0.2-1,0.7-1.4c0.4-0.3,1.1-0.5,1.9-0.5h0.9v-0.4c0-0.3-0.1-0.6-0.3-0.8c-0.2-0.2-0.5-0.3-0.9-0.3c-0.3,0-0.6,0.1-0.9,0.3
		c-0.2,0.2-0.4,0.4-0.4,0.6h-1c0-0.3,0.1-0.6,0.3-0.8c0.2-0.3,0.5-0.5,0.8-0.6c0.3-0.2,0.7-0.2,1.1-0.2c0.7,0,1.2,0.2,1.5,0.5
		c0.4,0.3,0.6,0.8,0.6,1.3v2.6c0,0.5,0.1,0.9,0.2,1.2v0.1H81.4z M79.8,14c0.3,0,0.6-0.1,0.9-0.2c0.3-0.2,0.5-0.4,0.6-0.6v-1.2h-0.8
		c-1.2,0-1.8,0.3-1.8,1c0,0.3,0.1,0.5,0.3,0.7C79.2,13.9,79.5,14,79.8,14z"/>
	<path class="st1" d="M83.5,11.8c0-0.9,0.2-1.6,0.6-2.1c0.4-0.5,1-0.8,1.6-0.8c0.7,0,1.2,0.2,1.6,0.7v-3h1v8h-0.9l0-0.6
		c-0.4,0.5-0.9,0.7-1.6,0.7c-0.7,0-1.2-0.3-1.6-0.8C83.7,13.5,83.5,12.7,83.5,11.8L83.5,11.8z M84.5,11.9c0,0.6,0.1,1.1,0.4,1.5
		c0.3,0.4,0.6,0.5,1.1,0.5c0.6,0,1.1-0.3,1.3-0.8v-2.6C87,10,86.6,9.7,86,9.7c-0.5,0-0.8,0.2-1.1,0.6C84.6,10.7,84.5,11.2,84.5,11.9
		z"/>
</g>
<g>
	<path class="st1" d="M49.3,30.3h-5l-1,2.9h-3l5.2-13.9h2.6l5.2,13.9h-3L49.3,30.3z M45,27.9h3.5l-1.7-5.2L45,27.9z"/>
	<path class="st1" d="M57.4,28.2v4.9h-2.9V19.3H60c1,0,2,0.2,2.7,0.6c0.8,0.4,1.4,0.9,1.8,1.6c0.4,0.7,0.6,1.5,0.6,2.4
		c0,1.4-0.5,2.4-1.4,3.2c-0.9,0.8-2.2,1.2-3.9,1.2H57.4z M57.4,25.9H60c0.8,0,1.3-0.2,1.7-0.5s0.6-0.9,0.6-1.5
		c0-0.7-0.2-1.2-0.6-1.6c-0.4-0.4-1-0.6-1.7-0.6h-2.6V25.9z"/>
	<path class="st1" d="M71.5,27.6L70,29.2v4h-2.9V19.3H70v6.3l1.3-1.7l3.5-4.6h3.5l-4.9,6.2l5.1,7.7h-3.4L71.5,27.6z"/>
	<path class="st1" d="M85,33.1v-8.3h-1.5v-2H85v-0.9c0-1.2,0.3-2.1,1-2.7c0.7-0.6,1.6-1,2.8-1c0.4,0,0.8,0.1,1.4,0.2l0,2.1
		c-0.2-0.1-0.5-0.1-0.8-0.1c-1,0-1.6,0.5-1.6,1.5v0.8h2v2h-2v8.3H85z"/>
	<path class="st1" d="M91.2,20.1c0-0.4,0.1-0.8,0.4-1s0.7-0.4,1.1-0.4c0.5,0,0.8,0.1,1.1,0.4c0.3,0.3,0.4,0.6,0.4,1
		c0,0.4-0.1,0.8-0.4,1c-0.3,0.3-0.7,0.4-1.1,0.4c-0.5,0-0.8-0.1-1.1-0.4C91.3,20.9,91.2,20.6,91.2,20.1z M94.1,33.1h-2.8V22.8h2.8
		V33.1z"/>
	<path class="st1" d="M99.3,33.1h-2.8V18.5h2.8V33.1z"/>
	<path class="st1" d="M106.3,33.3c-1.5,0-2.7-0.5-3.7-1.4c-1-0.9-1.4-2.2-1.4-3.7v-0.3c0-1,0.2-2,0.6-2.8c0.4-0.8,1-1.4,1.7-1.9
		s1.6-0.7,2.5-0.7c1.4,0,2.5,0.4,3.3,1.3c0.8,0.9,1.2,2.1,1.2,3.8v1.1H104c0.1,0.7,0.4,1.2,0.8,1.6c0.4,0.4,1,0.6,1.7,0.6
		c1.1,0,1.9-0.4,2.5-1.2l1.4,1.5c-0.4,0.6-1,1-1.7,1.4C108,33.1,107.2,33.3,106.3,33.3z M106,24.8c-0.5,0-1,0.2-1.3,0.6
		s-0.6,0.9-0.7,1.6h3.8v-0.2c0-0.6-0.2-1.1-0.5-1.4S106.6,24.8,106,24.8z"/>
</g>
</svg>
