<svg width="66" height="51" viewBox="0 0 66 51" fill="none" xmlns="http://www.w3.org/2000/svg">
<g clip-path="url(#clip0_85_7295)">
<path d="M11.8515 50.8881V47.5034C11.8515 46.2087 11.0662 45.3609 9.71805 45.3609C9.04399 45.3609 8.31102 45.5843 7.80711 46.3204C7.41445 45.7026 6.85163 45.3609 6.00741 45.3609C5.4446 45.3609 4.88179 45.5318 4.43677 46.1495V45.4726H3.25879V50.8881H4.43677V47.8977C4.43677 46.9382 4.94069 46.4847 5.72601 46.4847C6.51133 46.4847 6.90399 46.9908 6.90399 47.8977V50.8881H8.08197V47.8977C8.08197 46.9382 8.64478 46.4847 9.3712 46.4847C10.1565 46.4847 10.5492 46.9908 10.5492 47.8977V50.8881H11.8515ZM29.3249 45.4726H27.414V43.8361H26.236V45.4726H25.1692V46.5439H26.236V49.0282C26.236 50.2703 26.7399 50.9998 28.088 50.9998C28.5919 50.9998 29.1548 50.8289 29.5474 50.6055L29.2071 49.5868C28.8668 49.8102 28.4741 49.8694 28.1927 49.8694C27.6299 49.8694 27.4074 49.5276 27.4074 48.969V46.5439H29.3184V45.4726H29.3249ZM39.3247 45.3543C38.6506 45.3543 38.199 45.6961 37.9176 46.143V45.466H36.7396V50.8815H37.9176V47.832C37.9176 46.9316 38.3103 46.419 39.0433 46.419C39.2658 46.419 39.5472 46.4782 39.7762 46.5307L40.1165 45.4003C39.8809 45.3543 39.5472 45.3543 39.3247 45.3543ZM24.2138 45.9195C23.651 45.5252 22.8656 45.3543 22.0214 45.3543C20.6733 45.3543 19.7767 46.0312 19.7767 47.1025C19.7767 48.0029 20.4508 48.5155 21.6288 48.6798L22.1916 48.739C22.8067 48.8507 23.147 49.0216 23.147 49.3042C23.147 49.6985 22.6955 49.9811 21.9102 49.9811C21.1248 49.9811 20.5031 49.6985 20.1105 49.4159L19.5477 50.3163C20.1628 50.7698 21.007 50.9932 21.8513 50.9932C23.4219 50.9932 24.325 50.2572 24.325 49.245C24.325 48.2855 23.5921 47.7794 22.473 47.6086L21.9102 47.5494C21.4062 47.4903 21.0136 47.3785 21.0136 47.0434C21.0136 46.649 21.4062 46.4256 22.028 46.4256C22.702 46.4256 23.3761 46.7082 23.7164 46.8791L24.2138 45.9195ZM55.5546 45.3543C54.8806 45.3543 54.429 45.6961 54.1476 46.143V45.466H52.9696V50.8815H54.1476V47.832C54.1476 46.9316 54.5403 46.419 55.2732 46.419C55.4957 46.419 55.7771 46.4782 56.0062 46.5307L56.3465 45.4135C56.1174 45.3543 55.7837 45.3543 55.5546 45.3543ZM40.5026 48.1803C40.5026 49.8168 41.6283 50.9998 43.3691 50.9998C44.1544 50.9998 44.7172 50.8289 45.28 50.382L44.7172 49.4225C44.2656 49.7642 43.8206 49.9285 43.3102 49.9285C42.3547 49.9285 41.6806 49.2516 41.6806 48.1803C41.6806 47.1617 42.3547 46.4847 43.3102 46.4321C43.8141 46.4321 44.2656 46.603 44.7172 46.9382L45.28 45.9787C44.7172 45.5252 44.1544 45.3609 43.3691 45.3609C41.6283 45.3543 40.5026 46.5439 40.5026 48.1803ZM51.399 48.1803V45.4726H50.221V46.1495C49.8283 45.6435 49.2655 45.3609 48.5325 45.3609C47.0143 45.3609 45.8363 46.5439 45.8363 48.1803C45.8363 49.8168 47.0143 50.9998 48.5325 50.9998C49.3179 50.9998 49.8807 50.7172 50.221 50.2111V50.8881H51.399V48.1803ZM47.0732 48.1803C47.0732 47.2208 47.6883 46.4321 48.7027 46.4321C49.6582 46.4321 50.3322 47.1682 50.3322 48.1803C50.3322 49.1399 49.6582 49.9285 48.7027 49.9285C47.6949 49.8694 47.0732 49.1333 47.0732 48.1803ZM32.9766 45.3543C31.406 45.3543 30.2804 46.4847 30.2804 48.1738C30.2804 49.8694 31.406 50.9932 33.0355 50.9932C33.8209 50.9932 34.6062 50.7698 35.2279 50.2572L34.6651 49.4093C34.2135 49.7511 33.6507 49.9746 33.0944 49.9746C32.3615 49.9746 31.6351 49.6328 31.4649 48.6798H35.4504C35.4504 48.509 35.4504 48.3972 35.4504 48.2263C35.5028 46.4847 34.4884 45.3543 32.9766 45.3543ZM32.9766 46.373C33.7096 46.373 34.2135 46.8265 34.3248 47.6677H31.5173C31.6285 46.9382 32.1324 46.373 32.9766 46.373ZM62.2429 48.1803V43.3301H61.065V46.1495C60.6723 45.6435 60.1095 45.3609 59.3765 45.3609C57.8582 45.3609 56.6803 46.5439 56.6803 48.1803C56.6803 49.8168 57.8582 50.9998 59.3765 50.9998C60.1618 50.9998 60.7247 50.7172 61.065 50.2111V50.8881H62.2429V48.1803ZM57.9171 48.1803C57.9171 47.2208 58.5323 46.4321 59.5467 46.4321C60.5022 46.4321 61.1762 47.1682 61.1762 48.1803C61.1762 49.1399 60.5022 49.9285 59.5467 49.9285C58.5323 49.8694 57.9171 49.1333 57.9171 48.1803ZM18.4809 48.1803V45.4726H17.3029V46.1495C16.9103 45.6435 16.3475 45.3609 15.6145 45.3609C14.0962 45.3609 12.9182 46.5439 12.9182 48.1803C12.9182 49.8168 14.0962 50.9998 15.6145 50.9998C16.3998 50.9998 16.9626 50.7172 17.3029 50.2111V50.8881H18.4809V48.1803ZM14.1028 48.1803C14.1028 47.2208 14.7179 46.4321 15.7323 46.4321C16.6878 46.4321 17.3618 47.1682 17.3618 48.1803C17.3618 49.1399 16.6878 49.9285 15.7323 49.9285C14.7179 49.8694 14.1028 49.1333 14.1028 48.1803Z" fill="#343434"/>
<path d="M41.5172 4.34424H23.8213V36.2718H41.5172V4.34424Z" fill="#4F4F4F"/>
<path d="M24.9994 20.308C24.9994 13.8213 28.036 8.06404 32.6955 4.3442C29.2663 1.63647 24.9405 0 20.222 0C9.04428 0 0 9.08273 0 20.308C0 31.5332 9.04428 40.616 20.222 40.616C24.9405 40.616 29.2663 38.9795 32.6955 36.2718C28.0294 32.6045 24.9994 26.7947 24.9994 20.308Z" fill="#343434"/>
<path d="M65.3909 20.308C65.3909 31.5332 56.3466 40.616 45.1688 40.616C40.4504 40.616 36.1245 38.9795 32.6953 36.2718C37.4138 32.5453 40.3915 26.7947 40.3915 20.308C40.3915 13.8213 37.3549 8.06404 32.6953 4.3442C36.118 1.63647 40.4438 0 45.1623 0C56.3466 0 65.3909 9.14188 65.3909 20.308Z" fill="#343434"/>
</g>
<defs>
<clipPath id="clip0_85_7295">
<rect width="65.3911" height="51" fill="white"/>
</clipPath>
</defs>
</svg>
