<svg width="85" height="29" viewBox="0 0 85 29" fill="none" xmlns="http://www.w3.org/2000/svg">
<path d="M2.94434 15.2651V26.422H5.52211V19.4942C6.60961 20.2998 7.8985 20.7429 9.3485 20.7429C12.9332 20.7429 15.8332 17.8026 15.8332 14.1776C15.8332 10.5526 12.9332 7.6123 9.3485 7.6123C6.12628 7.6123 3.186 10.029 2.94434 13.654V15.2651ZM9.3485 18.4873C7.49572 18.4873 5.96517 17.1179 5.52211 15.2651C5.44156 14.9026 5.40128 14.5401 5.40128 14.1776C5.40128 13.8151 5.44156 13.4526 5.52211 13.0901C5.96517 11.2373 7.49572 9.86786 9.3485 9.86786C11.5235 9.86786 13.6582 11.8012 13.6582 14.1776C13.6582 16.554 11.5235 18.4873 9.3485 18.4873Z" fill="#343434"/>
<path d="M20.5453 4.75293H18.0078V20.7432H20.5453V4.75293Z" fill="#343434"/>
<path d="M35.2072 14.4195C35.2072 10.7945 32.3072 7.81396 28.6822 7.81396C25.0975 7.81396 22.1572 10.7542 22.1572 14.4195C22.1572 18.0445 25.0572 21.0251 28.6822 21.0251C30.1725 21.0251 31.542 20.5015 32.6697 19.6556V20.864H35.2072V14.4195ZM28.6822 18.689C26.5475 18.689 24.8156 16.7556 24.8156 14.4195C24.8156 12.0834 26.5475 10.1501 28.6822 10.1501C30.817 10.1501 32.5489 12.0834 32.5489 14.4195C32.5489 16.7556 30.817 18.689 28.6822 18.689Z" fill="#343434"/>
<path d="M44.7932 17.843C44.7932 17.843 43.5849 19.0513 41.9335 18.6485C40.2821 18.2457 40.2015 16.6346 40.2015 16.6346V10.2707H43.9071V7.93462H40.2015V4.7124H37.5029V16.5138C37.5029 16.5138 37.664 20.9443 42.296 20.9443C42.296 20.9443 44.5515 20.9443 45.5182 19.8568L44.7932 17.843Z" fill="#343434"/>
<path d="M49.5856 12.486V20.6624H47.0078V12.486C47.0078 12.486 47.1286 7.69294 52.0022 7.81377C52.0022 7.81377 54.0161 7.77349 55.7884 9.50544L54.2981 11.5193C54.2981 11.5193 53.3717 9.98877 51.68 9.98877C50.3106 10.029 49.5856 11.6402 49.5856 12.486Z" fill="#343434"/>
<path d="M76.532 7.81396C71.457 7.81396 70.9736 12.4862 70.9736 12.9695C70.9736 13.4529 70.9736 20.6223 70.9736 20.6223H73.3903V13.2515C73.3903 13.2515 73.4709 10.1501 76.4111 10.0292C79.1903 9.94869 79.7139 12.7279 79.7139 13.1306C79.7139 13.4931 79.7139 20.6626 79.7139 20.6626H82.1306C82.1306 20.6626 82.1709 13.332 82.1306 13.0098C82.0903 12.6876 81.8889 7.81396 76.532 7.81396Z" fill="#343434"/>
<path fill-rule="evenodd" clip-rule="evenodd" d="M62.9176 7.69287C63.9648 7.69287 64.9718 7.93454 65.8579 8.37759C65.9787 8.45815 66.1398 8.49843 66.2606 8.57898L65.6565 9.14287L64.7301 8.1762L63.1592 9.58593L62.2329 8.57898L59.3328 11.197L61.1856 13.2512L60.4606 13.8956L62.3134 15.9498L61.5884 16.5943L64.2065 19.4943L65.7773 18.0443L67.1065 19.5748C66.8245 19.7762 66.5426 19.9776 66.2204 20.179C65.2537 20.7429 64.1259 21.0651 62.9176 21.0651C59.2523 21.0651 56.2314 18.0845 56.2314 14.379C56.2314 10.6734 59.212 7.69287 62.9176 7.69287Z" fill="#343434"/>
<path fill-rule="evenodd" clip-rule="evenodd" d="M61.6689 13.9361L63.28 12.5264L64.6898 14.0972L63.1189 15.5472L61.6689 13.9361Z" fill="#343434"/>
<path fill-rule="evenodd" clip-rule="evenodd" d="M62.7969 16.6749L64.408 15.2651L65.8177 16.836L64.2469 18.286L62.7969 16.6749Z" fill="#343434"/>
<path fill-rule="evenodd" clip-rule="evenodd" d="M60.541 11.2371L62.1521 9.78711L63.5618 11.3982L61.991 12.8079L60.541 11.2371Z" fill="#343434"/>
<path fill-rule="evenodd" clip-rule="evenodd" d="M63.4414 10.4723L64.6497 9.38477L65.7372 10.5931L64.5289 11.6403L63.4414 10.4723Z" fill="#343434"/>
<path fill-rule="evenodd" clip-rule="evenodd" d="M65.5762 15.3858L66.7442 14.2983L67.8317 15.5067L66.6637 16.5539L65.5762 15.3858Z" fill="#343434"/>
<path fill-rule="evenodd" clip-rule="evenodd" d="M66.623 17.7621L67.7911 16.7148L68.8785 17.8829L67.7105 18.9704L66.623 17.7621Z" fill="#343434"/>
<path fill-rule="evenodd" clip-rule="evenodd" d="M67.1064 12.2846L67.912 11.5596L68.5968 12.3248L67.8315 13.0498L67.1064 12.2846Z" fill="#343434"/>
<path fill-rule="evenodd" clip-rule="evenodd" d="M66.0996 9.9081L66.8649 9.18311L67.5899 9.98866L66.7843 10.7137L66.0996 9.9081Z" fill="#343434"/>
<path fill-rule="evenodd" clip-rule="evenodd" d="M68.1133 14.6205L68.9188 13.8955L69.6036 14.7011L68.8383 15.4261L68.1133 14.6205Z" fill="#343434"/>
<path fill-rule="evenodd" clip-rule="evenodd" d="M64.5693 12.8485L65.7374 11.8013L66.8249 12.9693L65.6166 14.0568L64.5693 12.8485Z" fill="#343434"/>
</svg>
