<svg width="153" height="34" viewBox="0 0 153 34" fill="none" xmlns="http://www.w3.org/2000/svg">
<g clip-path="url(#clip0_85_7303)">
<path d="M61.7672 10.3235C61.7672 11.0529 61.655 11.67 61.4306 12.175C61.2062 12.736 60.8695 13.1849 60.4768 13.5215C60.0841 13.9142 59.523 14.1948 58.9058 14.3631C58.2887 14.5314 57.5593 14.6436 56.7738 14.6436H55.7078V18.6832C55.7078 18.7393 55.7078 18.7954 55.6517 18.8515C55.5956 18.9076 55.5395 18.9637 55.4273 18.9637C55.3151 19.0199 55.2029 19.0199 55.0345 19.0199C54.8662 19.0199 54.6418 19.076 54.4174 19.076C54.193 19.076 53.9685 19.076 53.8002 19.0199C53.6319 19.0199 53.5197 18.9637 53.4075 18.9637C53.2953 18.9076 53.2392 18.9076 53.1831 18.8515C53.127 18.7954 53.127 18.7393 53.127 18.6832V7.40599C53.127 7.12546 53.1831 6.90104 53.3514 6.73272C53.5197 6.56441 53.7441 6.5083 53.9685 6.5083H56.9421C57.2227 6.5083 57.5032 6.5083 57.7837 6.56441C58.0643 6.56441 58.4009 6.62051 58.7375 6.73272C59.1303 6.78883 59.4669 6.95715 59.8596 7.12546C60.2524 7.34988 60.589 7.57431 60.8695 7.91094C61.1501 8.19147 61.3745 8.58421 61.4867 8.97695C61.655 9.36969 61.7672 9.81853 61.7672 10.3235ZM59.0742 10.4918C59.0742 10.043 59.018 9.70632 58.8497 9.42579C58.6814 9.14526 58.5131 8.92084 58.2887 8.80863C58.0643 8.69642 57.8398 8.58421 57.5593 8.5281C57.3349 8.472 57.0544 8.472 56.7738 8.472H55.7078V12.736H56.8299C57.2227 12.736 57.5593 12.6799 57.8398 12.5677C58.1204 12.4555 58.3448 12.2872 58.5131 12.1189C58.6814 11.8944 58.7936 11.67 58.9058 11.3895C59.0181 11.109 59.0742 10.8284 59.0742 10.4918Z" fill="#343434"/>
<path d="M72.2586 18.7393C72.2586 18.8515 72.2025 18.9076 72.1463 18.9637C72.0902 19.0198 71.978 19.0759 71.8658 19.0759C71.7536 19.0759 71.5292 19.132 71.2487 19.132C70.9681 19.132 70.7437 19.132 70.6315 19.0759C70.5193 19.0759 70.4071 19.0198 70.351 18.9637C70.2949 18.9076 70.2949 18.8515 70.2949 18.7393V18.066C69.9582 18.4588 69.5094 18.7393 69.0605 18.9637C68.6117 19.1882 68.1067 19.3004 67.5457 19.3004C67.0968 19.3004 66.648 19.2443 66.2552 19.132C65.8625 19.0198 65.5259 18.8515 65.2453 18.571C64.9648 18.3466 64.7404 18.066 64.5721 17.6733C64.4038 17.3367 64.3477 16.8878 64.3477 16.439C64.3477 15.934 64.4599 15.4852 64.6282 15.1486C64.8526 14.7558 65.1331 14.4753 65.5259 14.2509C65.9186 14.0264 66.4236 13.802 66.9846 13.6898C67.5457 13.5776 68.2189 13.5215 69.0044 13.5215H69.846V13.0165C69.846 12.736 69.846 12.5116 69.7899 12.2872C69.7338 12.0627 69.6216 11.8944 69.5094 11.7822C69.3972 11.67 69.2289 11.5578 69.0044 11.5017C68.78 11.4456 68.5556 11.3895 68.2189 11.3895C67.8262 11.3895 67.4335 11.4456 67.1529 11.5017C66.8163 11.6139 66.5358 11.67 66.3114 11.7822C66.0869 11.8944 65.8625 12.0066 65.6942 12.0627C65.5259 12.175 65.4137 12.175 65.3015 12.175C65.2453 12.175 65.1892 12.175 65.1331 12.1188C65.077 12.0627 65.0209 12.0066 65.0209 11.9505C64.9648 11.8944 64.9648 11.7822 64.9648 11.6139C64.9648 11.5017 64.9087 11.3334 64.9087 11.2212C64.9087 10.9967 64.9087 10.8845 64.9648 10.7723C65.0209 10.6601 65.077 10.5479 65.1331 10.4357C65.2453 10.3235 65.3576 10.2113 65.582 10.099C65.8064 9.98684 66.0869 9.87463 66.3675 9.76241C66.648 9.6502 66.9846 9.5941 67.3774 9.53799C67.714 9.48189 68.1067 9.42578 68.4995 9.42578C69.1727 9.42578 69.7338 9.48189 70.2388 9.6502C70.7437 9.76242 71.1364 9.98684 71.417 10.2674C71.7536 10.5479 71.978 10.8845 72.0902 11.3334C72.2586 11.7822 72.3147 12.2872 72.3147 12.8482V18.7393H72.2586ZM69.846 15.0363H68.8922C68.4995 15.0363 68.1628 15.0924 67.8823 15.1486C67.6018 15.2047 67.3774 15.3169 67.209 15.4291C67.0407 15.5413 66.9285 15.7096 66.8163 15.8779C66.7602 16.0462 66.7041 16.2146 66.7041 16.439C66.7041 16.7756 66.8163 17.1122 67.0407 17.2806C67.2652 17.505 67.6018 17.6172 67.9945 17.6172C68.3312 17.6172 68.6678 17.505 68.9483 17.3367C69.2288 17.1684 69.5094 16.8878 69.846 16.5512V15.0363Z" fill="#343434"/>
<path d="M81.0111 19.0761L79.9451 22.1619C79.889 22.3302 79.7207 22.4424 79.4963 22.4985C79.2157 22.5546 78.8791 22.6107 78.3741 22.6107C78.0936 22.6107 77.9253 22.6107 77.757 22.5546C77.5887 22.5546 77.4765 22.4985 77.4204 22.4424C77.3642 22.3863 77.3081 22.3302 77.3081 22.2741C77.3081 22.218 77.3081 22.1058 77.3642 21.9936L78.4864 19.0761C78.3741 19.02 78.318 18.9639 78.2619 18.9078C78.2058 18.8517 78.1497 18.7394 78.0936 18.6272L75.12 10.6602C75.0639 10.4358 75.0078 10.2675 75.0078 10.1553C75.0078 10.0431 75.0639 9.93087 75.12 9.87477C75.1761 9.81866 75.3444 9.76255 75.5128 9.70645C75.6811 9.70645 75.9616 9.65034 76.2421 9.65034C76.5227 9.65034 76.7471 9.65034 76.9154 9.65034C77.0837 9.65034 77.1959 9.70645 77.3081 9.70645C77.4204 9.76255 77.4765 9.81866 77.5326 9.87477C77.5887 9.93087 77.6448 10.0431 77.6448 10.2114L79.7207 15.9903H79.7768L81.6283 10.0992C81.6844 9.93087 81.7405 9.81866 81.7966 9.76255C81.8527 9.70645 81.9649 9.65034 82.0771 9.65034C82.2454 9.65034 82.4698 9.59424 82.8065 9.59424C83.087 9.59424 83.3114 9.59424 83.4797 9.65034C83.6481 9.65034 83.8164 9.70645 83.8725 9.81866C83.9847 9.87477 83.9847 9.98698 83.9847 10.0992C83.9847 10.2114 83.9847 10.3797 83.9286 10.548L81.0111 19.0761Z" fill="#343434"/>
<path d="M101.883 18.7393C101.883 18.7954 101.883 18.8515 101.827 18.9076C101.771 18.9637 101.715 19.0198 101.659 19.0198C101.546 19.0759 101.434 19.0759 101.266 19.0759C101.097 19.0759 100.929 19.1321 100.649 19.1321C100.424 19.1321 100.2 19.1321 100.088 19.0759C99.9192 19.0759 99.807 19.0198 99.6948 19.0198C99.5826 18.9637 99.5265 18.9637 99.5265 18.9076C99.4704 18.8515 99.4704 18.7954 99.4704 18.7393V8.472L95.8235 18.6832C95.8235 18.7954 95.7674 18.8515 95.7113 18.9076C95.6552 18.9637 95.5991 19.0198 95.4869 19.0198C95.3747 19.0759 95.2625 19.0759 95.0942 19.0759C94.9258 19.0759 94.7575 19.0759 94.5331 19.0759C94.3087 19.0759 94.1404 19.0759 93.972 19.0759C93.8037 19.0759 93.6915 19.0198 93.5793 19.0198C93.4671 18.9637 93.411 18.9637 93.3549 18.9076C93.2988 18.8515 93.2427 18.7954 93.2427 18.7393L89.7641 8.5281V18.7393C89.7641 18.7954 89.7641 18.8515 89.708 18.9076C89.6519 18.9637 89.5958 19.0198 89.4836 19.0198C89.3714 19.0759 89.2592 19.0759 89.0908 19.0759C88.9225 19.0759 88.7542 19.1321 88.5298 19.1321C88.3054 19.1321 88.0809 19.1321 87.9687 19.0759C87.8004 19.0759 87.6882 19.0198 87.576 19.0198C87.4638 18.9637 87.4077 18.9637 87.4077 18.9076C87.3516 18.8515 87.3516 18.7954 87.3516 18.7393V7.5182C87.3516 7.18157 87.4638 6.95715 87.6321 6.78883C87.8004 6.62051 88.0248 6.5083 88.3054 6.5083H89.9885C90.2691 6.5083 90.5496 6.5083 90.774 6.56441C90.9984 6.62051 91.1668 6.67662 91.3351 6.78883C91.5034 6.90104 91.6156 7.06936 91.7278 7.23767C91.84 7.40599 91.8961 7.63041 92.0083 7.91094L94.7014 15.373H94.7575L97.5628 7.91094C97.675 7.63041 97.7311 7.40599 97.8433 7.23767C97.9555 7.06936 98.0678 6.90104 98.18 6.78883C98.2922 6.67662 98.4605 6.56441 98.6288 6.56441C98.7971 6.5083 99.0215 6.5083 99.246 6.5083H100.985C101.154 6.5083 101.322 6.5083 101.434 6.56441C101.546 6.62051 101.659 6.67662 101.771 6.78883C101.827 6.90104 101.939 6.95715 101.939 7.12546C101.995 7.23767 101.995 7.40599 101.995 7.57431V18.7393H101.883Z" fill="#343434"/>
<path d="M113.552 18.7393C113.552 18.8515 113.496 18.9076 113.44 18.9637C113.384 19.0198 113.272 19.0759 113.16 19.0759C113.048 19.0759 112.823 19.132 112.543 19.132C112.262 19.132 112.038 19.132 111.925 19.0759C111.813 19.0759 111.701 19.0198 111.645 18.9637C111.589 18.9076 111.589 18.8515 111.589 18.7393V18.066C111.252 18.4588 110.803 18.7393 110.354 18.9637C109.906 19.1882 109.401 19.3004 108.84 19.3004C108.391 19.3004 107.942 19.2443 107.549 19.132C107.156 19.0198 106.82 18.8515 106.539 18.571C106.259 18.3466 106.034 18.066 105.866 17.6733C105.698 17.3367 105.642 16.8878 105.642 16.439C105.642 15.934 105.754 15.4852 105.922 15.1486C106.147 14.7558 106.427 14.4753 106.82 14.2509C107.213 14.0264 107.718 13.802 108.279 13.6898C108.84 13.5776 109.513 13.5215 110.298 13.5215H111.14V13.0165C111.14 12.736 111.14 12.5116 111.084 12.2872C111.028 12.0627 110.916 11.8944 110.803 11.7822C110.691 11.67 110.523 11.5578 110.298 11.5017C110.074 11.4456 109.85 11.3895 109.513 11.3895C109.12 11.3895 108.727 11.4456 108.447 11.5017C108.11 11.6139 107.83 11.67 107.605 11.7822C107.381 11.8944 107.156 12.0066 106.988 12.0627C106.82 12.175 106.708 12.175 106.595 12.175C106.539 12.175 106.483 12.175 106.427 12.1188C106.371 12.0627 106.315 12.0066 106.315 11.9505C106.259 11.8944 106.259 11.7822 106.259 11.6139C106.259 11.5017 106.203 11.3334 106.203 11.2212C106.203 10.9967 106.203 10.8845 106.259 10.7723C106.315 10.6601 106.371 10.5479 106.427 10.4357C106.539 10.3235 106.652 10.2113 106.876 10.099C107.1 9.98684 107.381 9.87463 107.661 9.76241C107.942 9.6502 108.279 9.5941 108.671 9.53799C109.008 9.48189 109.401 9.42578 109.793 9.42578C110.467 9.42578 111.028 9.48189 111.533 9.6502C112.038 9.76242 112.43 9.98684 112.711 10.2674C113.048 10.5479 113.272 10.8845 113.384 11.3334C113.552 11.7822 113.609 12.2872 113.609 12.8482V18.7393H113.552ZM111.14 15.0363H110.186C109.793 15.0363 109.457 15.0924 109.176 15.1486C108.896 15.2047 108.671 15.3169 108.503 15.4291C108.335 15.5413 108.222 15.7096 108.11 15.8779C108.054 16.0462 107.998 16.2146 107.998 16.439C107.998 16.7756 108.11 17.1122 108.335 17.2806C108.559 17.505 108.896 17.6172 109.288 17.6172C109.625 17.6172 109.962 17.505 110.242 17.3367C110.523 17.1684 110.803 16.8878 111.14 16.5512V15.0363Z" fill="#343434"/>
<path d="M123.764 16.2708C123.764 16.7757 123.652 17.1685 123.484 17.5612C123.315 17.9539 123.035 18.2345 122.698 18.515C122.361 18.7394 121.969 18.9638 121.52 19.076C121.071 19.1883 120.566 19.2444 120.005 19.2444C119.668 19.2444 119.388 19.2444 119.051 19.1883C118.771 19.1322 118.49 19.076 118.266 19.0199C118.041 18.9638 117.817 18.8516 117.705 18.7955C117.536 18.7394 117.424 18.6272 117.368 18.5711C117.312 18.515 117.256 18.4028 117.2 18.2345C117.144 18.0661 117.144 17.8978 117.144 17.5612C117.144 17.3929 117.144 17.2246 117.144 17.1123C117.144 17.0001 117.2 16.8879 117.2 16.8318C117.2 16.7757 117.256 16.7196 117.312 16.7196C117.368 16.7196 117.424 16.6635 117.48 16.6635C117.536 16.6635 117.649 16.7196 117.817 16.7757C117.929 16.8318 118.153 16.944 118.322 17.0562C118.546 17.1685 118.771 17.2246 119.051 17.3368C119.332 17.3929 119.612 17.449 120.005 17.449C120.229 17.449 120.398 17.449 120.566 17.3929C120.734 17.3368 120.903 17.2807 121.015 17.2246C121.127 17.1685 121.239 17.0562 121.295 16.8879C121.351 16.7757 121.408 16.6074 121.408 16.4391C121.408 16.2708 121.351 16.1024 121.239 15.9341C121.127 15.8219 120.959 15.6536 120.79 15.5975C120.566 15.4853 120.342 15.3731 120.117 15.317C119.893 15.2048 119.612 15.1487 119.332 15.0364C119.051 14.9242 118.827 14.812 118.546 14.6437C118.322 14.4754 118.097 14.3071 117.873 14.1387C117.649 13.9143 117.536 13.6899 117.424 13.4094C117.312 13.1288 117.256 12.7922 117.256 12.3434C117.256 11.9506 117.312 11.5579 117.48 11.2213C117.649 10.8846 117.873 10.6041 118.153 10.3236C118.434 10.0991 118.827 9.87472 119.276 9.76251C119.724 9.6503 120.229 9.53809 120.734 9.53809C121.015 9.53809 121.295 9.53809 121.52 9.59419C121.8 9.6503 122.025 9.7064 122.193 9.76251C122.418 9.81861 122.586 9.87472 122.698 9.93083C122.866 9.98693 122.922 10.043 122.979 10.0991C123.035 10.1552 123.091 10.2114 123.091 10.2675C123.091 10.3236 123.147 10.3797 123.147 10.4358C123.147 10.4919 123.147 10.6041 123.203 10.6602C123.203 10.7724 123.203 10.8846 123.203 11.0529C123.203 11.2213 123.203 11.3896 123.203 11.5018C123.203 11.614 123.203 11.7262 123.147 11.7823C123.147 11.8384 123.091 11.8945 123.035 11.8945C122.979 11.8945 122.922 11.9506 122.922 11.9506C122.866 11.9506 122.754 11.8945 122.642 11.8384C122.53 11.7823 122.361 11.6701 122.193 11.614C122.025 11.5579 121.8 11.4457 121.576 11.3896C121.351 11.3335 121.071 11.2774 120.734 11.2774C120.51 11.2774 120.342 11.2774 120.173 11.3335C120.005 11.3896 119.893 11.4457 119.781 11.5018C119.668 11.614 119.612 11.6701 119.556 11.7823C119.5 11.8945 119.5 12.0067 119.5 12.1189C119.5 12.3434 119.556 12.5117 119.668 12.6239C119.781 12.7361 119.949 12.9044 120.173 12.9605C120.398 13.0727 120.622 13.185 120.847 13.2411C121.127 13.3533 121.352 13.4094 121.632 13.5216C121.913 13.6338 122.137 13.746 122.418 13.9143C122.698 14.0826 122.922 14.251 123.091 14.4193C123.315 14.6437 123.427 14.8681 123.596 15.1487C123.708 15.5414 123.764 15.878 123.764 16.2708Z" fill="#343434"/>
<path d="M132.18 17.8976C132.18 18.1782 132.18 18.4026 132.124 18.5709C132.068 18.7392 132.068 18.8514 131.955 18.9075C131.899 18.9636 131.787 19.0197 131.675 19.0759C131.563 19.132 131.45 19.1881 131.282 19.1881C131.114 19.2442 130.946 19.2442 130.777 19.2442C130.609 19.2442 130.441 19.3003 130.216 19.3003C129.711 19.3003 129.318 19.2442 128.982 19.132C128.645 19.0197 128.309 18.7953 128.084 18.5709C127.86 18.2904 127.691 18.0098 127.579 17.6171C127.467 17.2244 127.411 16.7755 127.411 16.2145V11.7821H126.345C126.233 11.7821 126.12 11.726 126.064 11.5577C126.008 11.3894 125.952 11.165 125.952 10.7722C125.952 10.6039 125.952 10.4356 125.952 10.3234C125.952 10.2112 126.008 10.099 126.008 10.0429C126.064 9.98676 126.064 9.93065 126.12 9.87455C126.177 9.81844 126.233 9.81844 126.289 9.81844H127.299V7.91085C127.299 7.85475 127.299 7.79864 127.355 7.74254C127.411 7.68643 127.467 7.63032 127.523 7.63032C127.635 7.57422 127.748 7.57422 127.916 7.57422C128.084 7.57422 128.252 7.57422 128.477 7.57422C128.701 7.57422 128.926 7.57422 129.094 7.57422C129.262 7.57422 129.375 7.63032 129.487 7.63032C129.599 7.68643 129.655 7.68643 129.655 7.74254C129.711 7.79864 129.711 7.85475 129.711 7.91085V9.81844H131.563C131.619 9.81844 131.675 9.81844 131.731 9.87455C131.787 9.93065 131.843 9.98676 131.843 10.0429C131.899 10.099 131.899 10.2112 131.899 10.3234C131.899 10.4356 131.899 10.6039 131.899 10.7722C131.899 11.1089 131.843 11.3894 131.787 11.5577C131.731 11.726 131.619 11.7821 131.507 11.7821H129.599V15.8778C129.599 16.3267 129.655 16.7194 129.823 16.9438C129.992 17.1683 130.216 17.2805 130.609 17.2805C130.721 17.2805 130.833 17.2805 130.946 17.2244C131.058 17.2244 131.114 17.1683 131.226 17.1683C131.282 17.1122 131.394 17.1122 131.45 17.1122C131.507 17.1122 131.563 17.0561 131.619 17.0561C131.675 17.0561 131.675 17.0561 131.731 17.1122C131.787 17.1122 131.787 17.1683 131.787 17.2244C131.787 17.2805 131.843 17.3927 131.843 17.5049C132.18 17.561 132.18 17.7293 132.18 17.8976Z" fill="#343434"/>
<path d="M143.345 14.1387C143.345 14.4192 143.289 14.6436 143.121 14.8119C143.008 14.9802 142.784 15.0363 142.559 15.0363H137.286C137.286 15.4291 137.342 15.7657 137.398 16.0462C137.51 16.3268 137.622 16.6073 137.79 16.8317C137.959 17.0561 138.239 17.2245 138.52 17.3367C138.8 17.4489 139.193 17.505 139.586 17.505C140.035 17.505 140.371 17.4489 140.708 17.3928C141.045 17.3367 141.325 17.2806 141.55 17.1684C141.774 17.1123 141.998 17 142.111 16.9439C142.279 16.8878 142.391 16.8317 142.503 16.8317C142.559 16.8317 142.616 16.8317 142.672 16.8878C142.728 16.8878 142.728 16.9439 142.784 17C142.784 17.0561 142.84 17.1684 142.84 17.2245C142.84 17.3367 142.84 17.4489 142.84 17.6172C142.84 17.7855 142.84 17.8977 142.84 18.0099C142.84 18.1222 142.84 18.1783 142.784 18.2905C142.784 18.3466 142.728 18.4027 142.728 18.4588C142.728 18.5149 142.672 18.571 142.616 18.6271C142.559 18.6832 142.447 18.7393 142.279 18.7954C142.111 18.8515 141.83 18.9637 141.55 19.0198C141.269 19.076 140.932 19.1321 140.54 19.1882C140.147 19.2443 139.754 19.2443 139.361 19.2443C138.576 19.2443 137.903 19.1321 137.342 18.9637C136.781 18.7954 136.276 18.4588 135.883 18.0661C135.49 17.6733 135.21 17.1684 135.041 16.5512C134.873 15.934 134.761 15.2608 134.761 14.4192C134.761 13.6337 134.873 12.9604 135.041 12.3433C135.266 11.7261 135.546 11.2212 135.939 10.7723C136.332 10.3235 136.781 9.98684 137.342 9.76242C137.903 9.53799 138.52 9.42578 139.193 9.42578C139.922 9.42578 140.54 9.53799 141.045 9.76242C141.55 9.98684 141.998 10.2674 142.335 10.6601C142.672 11.0528 142.896 11.5017 143.064 12.0066C143.233 12.5116 143.289 13.0726 143.289 13.6898V14.1387H143.345ZM140.988 13.4654C140.988 12.7921 140.876 12.2311 140.596 11.8383C140.315 11.4456 139.866 11.2773 139.249 11.2773C138.913 11.2773 138.688 11.3334 138.464 11.4456C138.239 11.5578 138.071 11.7261 137.903 11.8944C137.734 12.1189 137.622 12.3433 137.566 12.5677C137.51 12.8482 137.454 13.1288 137.398 13.4093H140.988V13.4654Z" fill="#343434"/>
<path d="M152.658 10.8846C152.658 11.109 152.658 11.3335 152.658 11.4457C152.658 11.614 152.602 11.7262 152.602 11.7823C152.602 11.8384 152.546 11.9506 152.49 11.9506C152.434 12.0067 152.378 12.0067 152.322 12.0067C152.265 12.0067 152.209 12.0067 152.153 11.9506C152.097 11.9506 152.041 11.8945 151.929 11.8945C151.873 11.8945 151.761 11.8384 151.648 11.8384C151.536 11.8384 151.424 11.7823 151.312 11.7823C151.2 11.7823 151.031 11.7823 150.919 11.8384C150.807 11.8945 150.638 12.0067 150.47 12.1189C150.302 12.2312 150.19 12.3995 150.021 12.5678C149.853 12.7361 149.685 13.0166 149.516 13.2972V18.6833C149.516 18.7394 149.516 18.7955 149.46 18.8516C149.404 18.9077 149.348 18.9638 149.236 18.9638C149.124 19.0199 149.011 19.0199 148.843 19.0199C148.675 19.0199 148.506 19.0199 148.226 19.0199C148.002 19.0199 147.777 19.0199 147.609 19.0199C147.44 19.0199 147.328 18.9638 147.216 18.9638C147.104 18.9077 147.048 18.9077 146.992 18.8516C146.936 18.7955 146.936 18.7394 146.936 18.6833V10.0991C146.936 10.043 146.936 9.98693 146.992 9.93083C147.048 9.87472 147.104 9.81861 147.16 9.81861C147.216 9.76251 147.328 9.76251 147.497 9.76251C147.609 9.76251 147.777 9.76251 148.002 9.76251C148.226 9.76251 148.394 9.76251 148.506 9.76251C148.619 9.76251 148.731 9.81861 148.843 9.81861C148.899 9.87472 148.955 9.87472 149.011 9.93083C149.068 9.98693 149.068 10.043 149.068 10.0991V11.1651C149.292 10.8285 149.516 10.6041 149.685 10.3797C149.909 10.1552 150.077 9.98693 150.246 9.87472C150.414 9.76251 150.582 9.6503 150.807 9.59419C150.975 9.53809 151.143 9.53809 151.368 9.53809C151.424 9.53809 151.536 9.53809 151.648 9.53809C151.761 9.53809 151.873 9.53809 151.929 9.59419C152.041 9.59419 152.097 9.6503 152.209 9.6503C152.266 9.7064 152.322 9.7064 152.378 9.76251C152.434 9.81861 152.434 9.81861 152.434 9.87472C152.434 9.93083 152.49 9.98693 152.49 10.043C152.49 10.0991 152.49 10.2114 152.546 10.3236C152.658 10.4919 152.658 10.6602 152.658 10.8846Z" fill="#343434"/>
<path d="M56.5502 30.8024C56.5502 30.9707 56.5502 31.139 56.4941 31.3073C56.438 31.4756 56.3819 31.5878 56.3258 31.7C56.2697 31.8123 56.1574 31.9245 56.0452 32.0367C55.933 32.1489 55.8208 32.205 55.6525 32.2611C55.4842 32.3172 55.372 32.3733 55.2036 32.3733C55.0353 32.4294 54.867 32.4294 54.6426 32.4294H53.1838C53.1277 32.4294 53.0716 32.4294 53.0155 32.3733C52.9594 32.3172 52.9033 32.2611 52.9033 32.1489V27.0994C52.9033 26.9872 52.9594 26.9311 53.0155 26.875C53.0716 26.8188 53.1277 26.8188 53.1838 26.8188H54.4743C54.8109 26.8188 55.0914 26.875 55.3159 26.9311C55.5403 26.9872 55.7086 27.0994 55.8769 27.2116C56.0452 27.3238 56.1574 27.4921 56.2135 27.6604C56.2697 27.8287 56.3258 28.0532 56.3258 28.2776C56.3258 28.3898 56.3258 28.5581 56.2697 28.6703C56.2135 28.7825 56.2135 28.8948 56.1013 29.007C56.0452 29.1192 55.933 29.1753 55.8769 29.2875C55.7647 29.3436 55.6525 29.4558 55.5403 29.5119C55.7086 29.568 55.8208 29.568 55.9891 29.6802C56.1013 29.7363 56.2135 29.8486 56.3258 29.9608C56.438 30.073 56.4941 30.2413 56.5502 30.4096C56.4941 30.4096 56.5502 30.5779 56.5502 30.8024ZM55.4281 28.2215C55.4281 28.1093 55.4281 27.941 55.372 27.8287C55.3159 27.7165 55.2598 27.6043 55.2036 27.5482C55.1475 27.4921 55.0353 27.436 54.867 27.3799C54.7548 27.3238 54.5865 27.3238 54.3621 27.3238H53.5766V29.1753H54.4182C54.5865 29.1753 54.7548 29.1753 54.867 29.1192C54.9792 29.0631 55.0914 29.007 55.1475 28.8948C55.2036 28.7825 55.2598 28.7264 55.3159 28.6142C55.372 28.502 55.4281 28.3898 55.4281 28.2215ZM55.7647 30.8024C55.7647 30.634 55.7647 30.4657 55.7086 30.3535C55.6525 30.2413 55.5964 30.1291 55.4842 30.0169C55.372 29.9047 55.2598 29.8486 55.0914 29.7924C54.9231 29.7363 54.7548 29.7363 54.5304 29.7363H53.6327V31.7561H54.6987C54.867 31.7561 55.0353 31.7561 55.1475 31.7C55.2598 31.6439 55.372 31.5878 55.4842 31.5317C55.5964 31.4756 55.6525 31.3634 55.7086 31.2512C55.7086 31.139 55.7647 30.9707 55.7647 30.8024Z" fill="#343434"/>
<path d="M61.207 31.7002C61.207 31.7563 61.207 31.8124 61.207 31.8124C61.207 31.8685 61.207 31.8685 61.207 31.9246V31.9807C61.207 31.9807 61.1509 32.0368 61.1509 32.0929C61.0948 32.1491 61.0387 32.1491 60.9826 32.2052C60.8704 32.2613 60.8143 32.3174 60.7021 32.3735C60.5898 32.4296 60.4776 32.4296 60.3654 32.4857C60.2532 32.4857 60.0849 32.5418 59.9727 32.5418C59.6922 32.5418 59.4116 32.4857 59.2433 32.3735C59.0189 32.2613 58.8506 32.1491 58.6822 31.9807C58.5139 31.8124 58.4017 31.588 58.3456 31.3075C58.2895 31.0269 58.2334 30.7464 58.2334 30.4098C58.2334 30.0171 58.2895 29.6804 58.4017 29.3999C58.5139 29.1194 58.6261 28.8949 58.7945 28.7266C58.9628 28.5583 59.1311 28.39 59.3555 28.3339C59.5799 28.2217 59.8044 28.2217 60.0849 28.2217C60.1971 28.2217 60.3093 28.2217 60.4776 28.2778C60.5898 28.2778 60.7021 28.3339 60.8143 28.39C60.9265 28.4461 60.9826 28.4461 61.0948 28.5022C61.1509 28.5583 61.207 28.6144 61.2631 28.6144C61.3192 28.6144 61.3192 28.6705 61.3192 28.6705C61.3192 28.6705 61.3192 28.7266 61.3753 28.7266C61.3753 28.7266 61.3753 28.7827 61.3753 28.8388C61.3753 28.8949 61.3753 28.8949 61.3753 28.951C61.3753 29.0633 61.3753 29.1194 61.3192 29.1755C61.3192 29.2316 61.2631 29.2316 61.207 29.2316C61.1509 29.2316 61.0948 29.2316 61.0387 29.1755C60.9826 29.1194 60.9265 29.0633 60.8143 29.0072C60.7021 28.951 60.646 28.8949 60.4776 28.8388C60.3654 28.7827 60.1971 28.7827 60.0288 28.7827C59.6922 28.7827 59.4116 28.8949 59.2433 29.1755C59.075 29.456 58.9628 29.8487 58.9628 30.3537C58.9628 30.6342 58.9628 30.8025 59.0189 31.0269C59.075 31.1953 59.1311 31.3636 59.2433 31.5319C59.3555 31.6441 59.4677 31.7563 59.5799 31.8124C59.6922 31.8685 59.8605 31.9246 60.0288 31.9246C60.1971 31.9246 60.3654 31.9246 60.4776 31.8685C60.5898 31.8124 60.7021 31.7563 60.8143 31.7002C60.9265 31.6441 60.9826 31.588 61.0387 31.5319C61.0948 31.4758 61.1509 31.4758 61.207 31.4758H61.2631C61.2631 31.4758 61.2631 31.5319 61.3192 31.5319C61.3192 31.5319 61.3192 31.588 61.3192 31.6441C61.207 31.588 61.207 31.6441 61.207 31.7002Z" fill="#343434"/>
<path d="M66.2564 30.185C66.2564 30.2973 66.2002 30.3534 66.1441 30.4095C66.088 30.4656 66.0319 30.4656 65.9758 30.4656H63.395C63.395 30.69 63.395 30.8583 63.4511 31.0266C63.5072 31.1949 63.5633 31.3633 63.6755 31.4755C63.7877 31.5877 63.8999 31.6999 64.0682 31.756C64.2365 31.8121 64.4049 31.8682 64.6854 31.8682C64.8537 31.8682 65.022 31.8682 65.1903 31.8121C65.3587 31.756 65.4709 31.756 65.5831 31.6999C65.6953 31.6438 65.7514 31.6438 65.8636 31.5877C65.9197 31.5316 65.9758 31.5316 66.0319 31.5316H66.088C66.088 31.5316 66.1441 31.5316 66.1441 31.5877C66.1441 31.5877 66.1441 31.6438 66.1441 31.6999C66.1441 31.756 66.1441 31.756 66.1441 31.8121C66.1441 31.8682 66.1441 31.8682 66.1441 31.9243V31.9804V32.0365C66.1441 32.0365 66.1441 32.0926 66.088 32.0926C66.088 32.0926 66.0319 32.1487 65.9197 32.1487C65.8636 32.2048 65.7514 32.2048 65.6392 32.261C65.527 32.3171 65.3587 32.3171 65.1903 32.3732C65.022 32.3732 64.8537 32.4293 64.6854 32.4293C64.3487 32.4293 64.0682 32.3732 63.8438 32.3171C63.6194 32.2048 63.395 32.0926 63.2266 31.9243C63.0583 31.756 62.9461 31.5316 62.8339 31.2511C62.7217 30.9705 62.7217 30.69 62.7217 30.2973C62.7217 29.9606 62.7778 29.6801 62.8339 29.3996C62.9461 29.119 63.0583 28.8946 63.2266 28.7263C63.395 28.558 63.5633 28.3897 63.8438 28.2775C64.0682 28.1652 64.3488 28.1091 64.6293 28.1091C64.9659 28.1091 65.1903 28.1652 65.4148 28.2775C65.6392 28.3897 65.8075 28.5019 65.9758 28.6702C66.1441 28.8385 66.2002 29.0629 66.2564 29.2874C66.3125 29.5118 66.3686 29.7362 66.3686 30.0167V30.185H66.2564ZM64.1243 27.0992C64.1243 27.2676 64.0682 27.3798 64.0121 27.4359C63.956 27.492 63.8438 27.5481 63.6755 27.5481C63.5072 27.5481 63.3949 27.492 63.3388 27.4359C63.2827 27.3798 63.2827 27.2676 63.2827 27.0992C63.2827 26.9309 63.3388 26.8187 63.395 26.7626C63.4511 26.7065 63.5633 26.6504 63.7316 26.6504C63.8999 26.6504 64.0121 26.7065 64.0682 26.7626C64.1243 26.8187 64.1243 26.9309 64.1243 27.0992ZM65.527 29.9606C65.527 29.5679 65.4709 29.2874 65.3025 29.0629C65.1342 28.8385 64.8537 28.7263 64.5171 28.7263C64.3488 28.7263 64.1804 28.7824 64.0682 28.8385C63.956 28.8946 63.8438 29.0068 63.7316 29.119C63.6194 29.2312 63.5633 29.3435 63.5072 29.5118C63.4511 29.6801 63.4511 29.7923 63.4511 29.9606H65.527ZM65.6953 27.0992C65.6953 27.2676 65.6392 27.3798 65.5831 27.4359C65.527 27.492 65.4148 27.5481 65.2464 27.5481C65.0781 27.5481 64.9659 27.492 64.9098 27.4359C64.8537 27.3798 64.8537 27.2676 64.8537 27.0992C64.8537 26.9309 64.9098 26.8187 64.9659 26.7626C65.022 26.7065 65.1342 26.6504 65.3025 26.6504C65.4709 26.6504 65.5831 26.7065 65.6392 26.7626C65.6953 26.8187 65.6953 26.9309 65.6953 27.0992Z" fill="#343434"/>
<path d="M74.1673 31.1392C74.1673 31.3636 74.1112 31.532 74.0551 31.7003C73.999 31.8686 73.8867 31.9808 73.7184 32.093C73.5501 32.2052 73.3818 32.2613 73.1574 32.3174C72.933 32.3735 72.6524 32.4296 72.3719 32.4296C72.2597 32.4296 72.2036 32.4296 72.0914 32.4296C71.9792 32.4296 71.9231 32.4296 71.8109 32.4296C71.6987 32.4296 71.6425 32.4296 71.5864 32.4296C71.5303 32.4296 71.4181 32.4296 71.362 32.4296C71.2498 32.4296 71.1376 32.3735 71.0815 32.3174C71.0254 32.2613 71.0254 32.1491 71.0254 32.0369V28.6706C71.0254 28.5584 71.0254 28.4461 71.0815 28.39C71.1376 28.3339 71.1937 28.2778 71.3059 28.2778C71.362 28.2778 71.4742 28.2778 71.5303 28.2778C71.6425 28.2778 71.6987 28.2778 71.8109 28.2778C71.9231 28.2778 71.9792 28.2778 72.0914 28.2778C72.2036 28.2778 72.2597 28.2778 72.3719 28.2778C72.6524 28.2778 72.8769 28.2778 73.1013 28.3339C73.3257 28.39 73.494 28.4461 73.6062 28.5584C73.7184 28.6706 73.8306 28.7828 73.8867 28.895C73.9428 29.0072 73.999 29.1755 73.999 29.3438C73.999 29.5683 73.9428 29.7366 73.8306 29.9049C73.7184 30.0732 73.5501 30.1854 73.3257 30.2415C73.6062 30.2976 73.8306 30.4098 73.999 30.5782C74.1112 30.6904 74.1673 30.9148 74.1673 31.1392ZM73.3257 29.3438C73.3257 29.2316 73.3257 29.1755 73.2696 29.0633C73.2135 29.0072 73.1574 28.895 73.1013 28.895C73.0452 28.8389 72.933 28.7828 72.7646 28.7828C72.6524 28.7828 72.4841 28.7267 72.3158 28.7267C72.2036 28.7267 72.0353 28.7267 71.9231 28.7267C71.8109 28.7267 71.6986 28.7267 71.6425 28.7267V29.961H72.3719C72.6524 29.961 72.8769 29.9049 73.0452 29.7927C73.2135 29.6805 73.3257 29.5683 73.3257 29.3438ZM73.4379 31.1953C73.4379 31.0831 73.4379 30.9709 73.3818 30.9148C73.3257 30.8026 73.2696 30.7465 73.2135 30.6904C73.1013 30.6343 72.9891 30.5782 72.8769 30.5782C72.7646 30.5221 72.5963 30.5221 72.3719 30.5221H71.6425V31.9247C71.6986 31.9247 71.7548 31.9247 71.8109 31.9247C71.867 31.9247 71.9231 31.9247 71.9792 31.9247C72.0353 31.9247 72.0914 31.9247 72.1475 31.9247C72.2036 31.9247 72.2597 31.9247 72.3158 31.9247C72.4841 31.9247 72.6524 31.9247 72.8208 31.8686C72.933 31.8125 73.0452 31.8125 73.1574 31.7003C73.2696 31.6442 73.3257 31.532 73.3257 31.4758C73.3818 31.4197 73.4379 31.3075 73.4379 31.1953Z" fill="#343434"/>
<path d="M82.0222 32.3174C82.0222 32.3735 81.9661 32.3735 82.0222 32.3174C82.0222 32.3735 81.9661 32.3735 81.9661 32.3735C81.9661 32.3735 81.91 32.3735 81.8539 32.3735C81.7978 32.3735 81.7417 32.3735 81.6856 32.3735C81.6295 32.3735 81.5173 32.3735 81.4612 32.3735C81.4051 32.3735 81.349 32.3735 81.349 32.3735C81.2929 32.3735 81.2929 32.3735 81.2929 32.3174C81.2929 32.3174 81.2929 32.2613 81.2368 32.2613L80.7879 31.2514C80.7318 31.1392 80.6757 31.027 80.6196 30.9147C80.5635 30.8025 80.5074 30.7464 80.3952 30.6903C80.3391 30.6342 80.2269 30.5781 80.1146 30.5781C80.0024 30.5781 79.8902 30.522 79.778 30.522H79.4975V32.3174V32.3735C79.4975 32.3735 79.4414 32.3735 79.4414 32.4296C79.3853 32.4296 79.3853 32.4296 79.3292 32.4296C79.2731 32.4296 79.217 32.4296 79.1608 32.4296C79.1047 32.4296 79.0486 32.4296 78.9925 32.4296C78.9364 32.4296 78.8803 32.4296 78.8803 32.4296C78.8242 32.4296 78.8242 32.4296 78.8242 32.3735V32.3174V28.3339C78.8242 28.3339 78.8242 28.3339 78.8242 28.2778C78.8242 28.2778 78.8803 28.2778 78.8803 28.2217C78.9364 28.2217 78.9364 28.2217 78.9925 28.2217C79.0486 28.2217 79.1047 28.2217 79.1608 28.2217C79.217 28.2217 79.2731 28.2217 79.3292 28.2217C79.3853 28.2217 79.4414 28.2217 79.4414 28.2217C79.4975 28.2217 79.4975 28.2217 79.4975 28.2778C79.4975 28.2778 79.4975 28.2778 79.4975 28.3339V29.961H79.778C79.8902 29.961 80.0024 29.961 80.0585 29.9048C80.1707 29.9048 80.2269 29.8487 80.3391 29.7926C80.3952 29.7365 80.5074 29.6804 80.5635 29.5682C80.6196 29.456 80.6757 29.3438 80.7318 29.2316L81.1245 28.3339C81.1245 28.3339 81.1245 28.2778 81.1806 28.2778L81.2368 28.2217C81.2929 28.2217 81.2929 28.2217 81.349 28.2217C81.4051 28.2217 81.4612 28.2217 81.5173 28.2217C81.5734 28.2217 81.6295 28.2217 81.6856 28.2217C81.7417 28.2217 81.7417 28.2217 81.7978 28.2217C81.7978 28.2217 81.8539 28.2217 81.8539 28.2778C81.8539 28.2778 81.8539 28.2778 81.8539 28.3339V28.39C81.8539 28.4461 81.8539 28.4461 81.7978 28.5022L81.4051 29.3438C81.349 29.5121 81.2929 29.6243 81.2368 29.7365C81.1807 29.8487 81.1245 29.9048 81.0123 29.961C80.9562 30.0171 80.844 30.0732 80.7879 30.1293C80.7318 30.1854 80.6196 30.1854 80.5635 30.2415C80.6757 30.2976 80.7318 30.2976 80.844 30.3537C80.9562 30.4098 81.0123 30.4659 81.0684 30.522C81.1245 30.5781 81.2368 30.6903 81.2929 30.8025C81.349 30.9147 81.4051 31.027 81.4612 31.1392L81.91 32.1491V32.2052V32.2613C81.9661 32.2613 82.0222 32.3174 82.0222 32.3174Z" fill="#343434"/>
<path d="M86.5671 32.3175C86.5671 32.3736 86.5671 32.3736 86.511 32.3736C86.511 32.3736 86.4549 32.4297 86.3988 32.4297C86.3426 32.4297 86.2865 32.4297 86.2304 32.4297C86.1743 32.4297 86.1182 32.4297 86.0621 32.4297C86.006 32.4297 86.006 32.4297 85.9499 32.3736L85.8938 32.3175V31.9247C85.7255 32.0931 85.5572 32.2614 85.3327 32.3736C85.1083 32.4858 84.8839 32.5419 84.6595 32.5419C84.4351 32.5419 84.2667 32.5419 84.0984 32.4858C83.9301 32.4297 83.7618 32.3736 83.6496 32.2614C83.5374 32.1492 83.4252 32.0369 83.369 31.8686C83.3129 31.7003 83.2568 31.532 83.2568 31.3637C83.2568 31.1393 83.3129 30.9709 83.369 30.8026C83.4813 30.6343 83.5935 30.5221 83.7618 30.4099C83.9301 30.2977 84.1545 30.2416 84.3789 30.1855C84.6034 30.1294 84.8839 30.1294 85.2205 30.1294H85.7816V29.8488C85.7816 29.6805 85.7816 29.5683 85.7255 29.4561C85.6694 29.3439 85.6694 29.2317 85.5572 29.1756C85.5011 29.1195 85.3889 29.0634 85.2766 29.0073C85.1644 28.9511 84.9961 28.9511 84.8839 28.9511C84.7156 28.9511 84.5473 28.9511 84.3789 29.0073C84.2106 29.0634 84.0984 29.1195 83.9862 29.1195C83.874 29.1756 83.8179 29.2317 83.7057 29.2317C83.6496 29.2878 83.5935 29.2878 83.5374 29.2878H83.4813L83.4252 29.2317C83.4252 29.2317 83.4252 29.1756 83.369 29.1195C83.369 29.0634 83.369 29.0634 83.369 29.0073C83.369 28.9511 83.369 28.895 83.369 28.8389C83.369 28.7828 83.4252 28.7828 83.4252 28.7267C83.4813 28.6706 83.5374 28.6706 83.6496 28.6145C83.7618 28.5584 83.874 28.5023 83.9862 28.5023C84.0984 28.4462 84.2667 28.4462 84.3789 28.3901C84.5473 28.3901 84.6595 28.334 84.8278 28.334C85.1083 28.334 85.3327 28.3901 85.5572 28.4462C85.7816 28.5023 85.8938 28.6145 86.0621 28.7267C86.1743 28.8389 86.2865 29.0073 86.3426 29.1756C86.3987 29.3439 86.3988 29.5683 86.3988 29.7927V32.3175H86.5671ZM85.8377 30.5221H85.2205C84.9961 30.5221 84.8278 30.5221 84.7156 30.5782C84.5473 30.6343 84.4351 30.6343 84.3789 30.7465C84.2667 30.8026 84.2106 30.9148 84.1545 30.9709C84.0984 31.0832 84.0984 31.1954 84.0984 31.3076C84.0984 31.532 84.1545 31.7003 84.2667 31.8125C84.3789 31.9247 84.6034 31.9808 84.8278 31.9808C84.9961 31.9808 85.2205 31.9247 85.3327 31.8125C85.5011 31.7003 85.6694 31.5881 85.8377 31.3637V30.5221Z" fill="#343434"/>
<path d="M91.4482 31.7002C91.4482 31.7563 91.4482 31.8124 91.4482 31.8124C91.4482 31.8685 91.4482 31.8685 91.4482 31.9246V31.9807C91.4482 31.9807 91.3921 32.0368 91.3921 32.0929C91.336 32.1491 91.2799 32.1491 91.2238 32.2052C91.1116 32.2613 91.0555 32.3174 90.9433 32.3735C90.8311 32.4296 90.7188 32.4296 90.6066 32.4857C90.4944 32.4857 90.3261 32.5418 90.2139 32.5418C89.9334 32.5418 89.6528 32.4857 89.4845 32.3735C89.2601 32.2613 89.0918 32.1491 88.9235 31.9807C88.7551 31.8124 88.6429 31.588 88.5868 31.3075C88.5307 31.0269 88.4746 30.7464 88.4746 30.4098C88.4746 30.0171 88.5307 29.6804 88.6429 29.3999C88.7551 29.1194 88.8674 28.8949 89.0357 28.7266C89.204 28.5583 89.3723 28.39 89.5967 28.3339C89.8211 28.2217 90.0456 28.2217 90.3261 28.2217C90.4383 28.2217 90.5505 28.2217 90.7188 28.2778C90.8311 28.2778 90.9433 28.3339 91.0555 28.39C91.1677 28.4461 91.2238 28.4461 91.336 28.5022C91.3921 28.5583 91.4482 28.6144 91.5043 28.6144C91.5604 28.6144 91.5604 28.6705 91.5604 28.6705C91.5604 28.6705 91.5604 28.7266 91.6165 28.7266C91.6165 28.7266 91.6165 28.7827 91.6165 28.8388C91.6165 28.8949 91.6165 28.8949 91.6165 28.951C91.6165 29.0633 91.6165 29.1194 91.5604 29.1755C91.5604 29.2316 91.5043 29.2316 91.4482 29.2316C91.3921 29.2316 91.336 29.2316 91.2799 29.1755C91.2238 29.1194 91.1677 29.0633 91.0555 29.0072C90.9433 28.951 90.8872 28.8949 90.7188 28.8388C90.6066 28.7827 90.4383 28.7827 90.27 28.7827C89.9334 28.7827 89.6528 28.8949 89.4845 29.1755C89.3162 29.456 89.204 29.8487 89.204 30.3537C89.204 30.6342 89.204 30.8025 89.2601 31.0269C89.3162 31.1953 89.3723 31.3636 89.4845 31.5319C89.5967 31.7002 89.7089 31.7563 89.8211 31.8124C89.9334 31.8685 90.1017 31.9246 90.27 31.9246C90.4383 31.9246 90.6066 31.9246 90.7188 31.8685C90.8311 31.8124 90.9433 31.7563 91.0555 31.7002C91.1677 31.6441 91.2238 31.588 91.2799 31.5319C91.336 31.4758 91.3921 31.4758 91.4482 31.4758H91.5043C91.5043 31.4758 91.5043 31.5319 91.5604 31.5319C91.5604 31.5319 91.5604 31.588 91.5604 31.6441C91.4482 31.588 91.4482 31.6441 91.4482 31.7002Z" fill="#343434"/>
<path d="M95.9922 31.7002C95.9922 31.7563 95.9922 31.8124 95.9922 31.8124C95.9922 31.8685 95.9922 31.8685 95.9922 31.9246V31.9807C95.9922 31.9807 95.9361 32.0368 95.9361 32.0929C95.88 32.1491 95.8238 32.1491 95.7677 32.2052C95.6555 32.2613 95.5994 32.3174 95.4872 32.3735C95.375 32.4296 95.2628 32.4296 95.1506 32.4857C95.0384 32.4857 94.87 32.5418 94.7578 32.5418C94.4773 32.5418 94.1968 32.4857 94.0285 32.3735C93.804 32.2613 93.6357 32.1491 93.4674 31.9807C93.2991 31.8124 93.1869 31.588 93.1308 31.3075C93.0747 31.0269 93.0186 30.7464 93.0186 30.4098C93.0186 30.0171 93.0747 29.6804 93.1869 29.3999C93.2991 29.1194 93.4113 28.8949 93.5796 28.7266C93.7479 28.5583 93.9162 28.39 94.1407 28.3339C94.3651 28.2217 94.5895 28.2217 94.87 28.2217C94.9823 28.2217 95.0945 28.2217 95.2628 28.2778C95.375 28.2778 95.4872 28.3339 95.5994 28.39C95.7116 28.4461 95.7677 28.4461 95.8799 28.5022C95.9361 28.5583 95.9922 28.6144 96.0483 28.6144C96.1044 28.6705 96.1044 28.6705 96.1044 28.6705C96.1044 28.6705 96.1044 28.7266 96.1605 28.7266C96.1605 28.7266 96.1605 28.7827 96.1605 28.8388C96.1605 28.8949 96.1605 28.8949 96.1605 28.951C96.1605 29.0633 96.1605 29.1194 96.1044 29.1755C96.1044 29.2316 96.0483 29.2316 95.9922 29.2316C95.9361 29.2316 95.88 29.2316 95.8238 29.1755C95.7677 29.1194 95.7116 29.0633 95.5994 29.0072C95.4872 28.951 95.4311 28.8949 95.2628 28.8388C95.1506 28.7827 94.9823 28.7827 94.8139 28.7827C94.4773 28.7827 94.1968 28.8949 94.0285 29.1755C93.8601 29.456 93.7479 29.8487 93.7479 30.3537C93.7479 30.6342 93.7479 30.8025 93.804 31.0269C93.8601 31.1953 93.9162 31.3636 94.0285 31.5319C94.1407 31.6441 94.2529 31.7563 94.3651 31.8124C94.4773 31.8685 94.6456 31.9246 94.8139 31.9246C94.9823 31.9246 95.1506 31.9246 95.2628 31.8685C95.375 31.8124 95.4872 31.7563 95.5994 31.7002C95.7116 31.6441 95.7677 31.588 95.8238 31.5319C95.88 31.4758 95.9361 31.4758 95.9922 31.4758H96.0483C96.0483 31.4758 96.0483 31.5319 96.1044 31.5319C96.1044 31.5319 96.1044 31.588 96.1044 31.6441C95.9922 31.588 95.9922 31.6441 95.9922 31.7002Z" fill="#343434"/>
<path d="M99.4713 32.4296L98.9663 33.8884C98.9663 33.9445 98.9102 33.9445 98.8541 34.0006C98.798 34.0006 98.6858 34.0567 98.5174 34.0567C98.4613 34.0567 98.4052 34.0567 98.3491 34.0567C98.293 34.0567 98.293 34.0567 98.2369 34.0006L98.1808 33.9445C98.1808 33.8884 98.1808 33.8884 98.1808 33.8323L98.7419 32.4858L98.6858 32.4296L98.6297 32.3735L97.227 28.6145C97.227 28.5584 97.1709 28.5023 97.1709 28.4461C97.1709 28.39 97.1709 28.39 97.227 28.39C97.227 28.39 97.2831 28.3339 97.3392 28.3339C97.3953 28.3339 97.4514 28.3339 97.5636 28.3339C97.6759 28.3339 97.732 28.3339 97.7881 28.3339C97.8442 28.3339 97.9003 28.3339 97.9003 28.3339C97.9564 28.3339 97.9564 28.39 97.9564 28.39C97.9564 28.39 97.9564 28.4461 98.0125 28.5023L99.1346 31.6442L100.201 28.4461C100.201 28.39 100.257 28.3339 100.257 28.3339C100.257 28.3339 100.313 28.3339 100.369 28.2778C100.425 28.2778 100.481 28.2778 100.593 28.2778C100.649 28.2778 100.762 28.2778 100.818 28.2778C100.874 28.2778 100.93 28.2778 100.93 28.3339L100.986 28.39C100.986 28.4461 100.986 28.4461 100.986 28.5023L99.4713 32.4296Z" fill="#343434"/>
<path d="M103.959 31.9246C103.959 32.0368 103.959 32.0929 103.959 32.149C103.959 32.2051 103.903 32.2612 103.903 32.3173C103.847 32.3734 103.847 32.3734 103.735 32.3734C103.679 32.3734 103.623 32.3734 103.51 32.3734C103.398 32.3734 103.342 32.3734 103.286 32.3734C103.23 32.3734 103.174 32.3173 103.118 32.3173C103.062 32.2612 103.062 32.2051 103.062 32.149C103.062 32.0929 103.062 31.9807 103.062 31.9246C103.062 31.8124 103.062 31.7562 103.062 31.7001C103.062 31.644 103.118 31.5879 103.118 31.5318C103.174 31.4757 103.174 31.4757 103.286 31.4757C103.342 31.4757 103.398 31.4757 103.51 31.4757C103.623 31.4757 103.679 31.4757 103.735 31.4757C103.791 31.4757 103.847 31.5318 103.903 31.5318C103.959 31.5879 103.959 31.644 103.959 31.7001C103.903 31.7562 103.959 31.8685 103.959 31.9246ZM103.791 30.7463V30.8025L103.735 30.8586C103.735 30.8586 103.679 30.8586 103.623 30.8586C103.566 30.8586 103.51 30.8586 103.454 30.8586C103.398 30.8586 103.342 30.8586 103.286 30.8586C103.23 30.8586 103.23 30.8586 103.174 30.8586C103.174 30.8586 103.118 30.8586 103.118 30.8025V30.7463L103.062 26.5945C103.062 26.5384 103.062 26.5384 103.062 26.4823L103.118 26.4262C103.174 26.4262 103.174 26.3701 103.23 26.3701C103.286 26.3701 103.342 26.3701 103.454 26.3701C103.51 26.3701 103.623 26.3701 103.623 26.3701C103.679 26.3701 103.735 26.3701 103.735 26.4262C103.791 26.4262 103.791 26.4823 103.791 26.4823C103.791 26.4823 103.791 26.5384 103.791 26.5945V30.7463Z" fill="#343434"/>
<path d="M43.4773 22.3301C43.4773 22.6668 43.1967 23.1156 42.8601 23.2839L23.7281 31.8681C23.3915 32.0364 22.8304 32.0364 22.5499 31.8681L3.36176 23.2839C3.02513 23.1156 2.7446 22.7229 2.7446 22.3301V5.38623C2.7446 5.0496 3.02513 4.82518 3.36176 4.99349L22.606 14.0265C22.9426 14.1948 23.4476 14.1948 23.7842 14.0265L42.9162 5.0496C43.2528 4.88128 43.5334 5.0496 43.5334 5.44234V22.3301H43.4773ZM5.7182 4.15191V3.0298C5.7182 2.69317 5.99872 2.46874 6.33536 2.63706L22.5499 10.2113C22.8865 10.3796 23.3915 10.3796 23.7281 10.2113L39.4377 2.63706C39.7743 2.46874 40.0548 2.63706 39.9987 3.0298V4.43244L23.7842 12.0628C23.4476 12.2311 22.9426 12.2311 22.606 12.0628L5.7182 4.15191C5.66209 4.15191 5.7182 4.15191 5.7182 4.15191ZM44.7116 2.18822L41.6819 3.64696V0.448942C41.6819 0.112308 41.4014 -0.0560085 41.0647 0.0562027L23.7281 8.41594C23.3915 8.58425 22.8865 8.58425 22.5499 8.41594L4.70829 0.0562027C4.37166 -0.112114 4.09113 0.0562028 4.09113 0.448942V3.42254L1.56638 2.18822C1.22975 2.076 0.949219 2.24432 0.949219 2.58095V23.5083C0.949219 23.845 1.22975 24.2938 1.56638 24.4621L22.5499 33.8879C22.8865 34.0562 23.4476 34.0562 23.7281 33.8879L44.7116 24.4621C45.0482 24.2938 45.3288 23.9011 45.3288 23.5083V2.58095C45.2726 2.24432 44.9921 2.076 44.7116 2.18822Z" fill="#343434"/>
</g>
<defs>
<clipPath id="clip0_85_7303">
<rect width="151.71" height="34" fill="white" transform="translate(0.949219)"/>
</clipPath>
</defs>
</svg>
