<svg width="43" height="44" viewBox="0 0 43 44" fill="none" xmlns="http://www.w3.org/2000/svg">
<g clip-path="url(#clip0_85_7292)">
<path d="M42.2137 42.5209C42.0182 41.9831 41.6637 41.6165 41.4071 41.1398C40.7837 40.3209 40.0504 39.612 39.3171 38.9031C39.0604 38.8176 38.9504 38.5731 38.706 38.4753C38.5471 38.2676 38.2904 38.1576 38.0826 37.9987C37.6671 37.6809 37.2148 37.412 36.7504 37.1431C35.8704 36.5809 34.7826 36.2264 33.7071 35.8598C32.546 35.5787 31.3237 35.3709 30.0526 35.1998C28.7937 35.0164 27.5349 34.8453 26.5815 34.3442C26.0315 34.1853 25.6282 33.8798 25.1515 33.6353C24.7115 33.342 24.2348 33.0976 23.8682 32.7309C23.416 32.462 23.1348 32.0098 22.7804 31.6431C22.6582 31.3987 22.4504 31.252 22.3526 30.9831C22.2304 30.9342 22.1937 30.7876 22.1204 30.702C22.0348 30.6042 22.0348 30.4087 21.8882 30.372C21.8148 30.8731 21.8393 31.472 21.8882 31.9853C21.9493 32.2053 21.9737 32.4742 22.0348 32.6942C22.0715 32.8898 22.2549 33.2076 22.1815 33.3542C18.3682 33.1587 15.5815 31.9487 13.1615 30.3598C11.9637 29.5653 10.9371 28.5998 9.98374 27.5609C9.56818 26.9864 9.11596 26.4364 8.74929 25.8009C8.3704 25.1776 8.05263 24.4687 7.7104 23.8087C7.14818 22.3787 6.62262 20.912 6.42707 19.1153C6.1704 17.4409 6.23151 15.302 6.6104 13.7498C6.74485 12.8942 7.02596 12.1731 7.2704 11.4276C7.42929 11.0853 7.6004 10.7431 7.74707 10.3887C7.95485 10.0953 8.06485 9.692 8.32151 9.43533C9.01818 8.12755 10.0571 7.14978 11.1204 6.20867C12.2693 5.36533 13.5771 4.68089 15.1537 4.26533C16.6693 3.92311 18.7348 3.862 20.3726 4.21644C23.6971 4.90089 26.2026 6.392 28.3048 8.29867C30.4315 10.1687 32.0693 12.5398 33.1937 15.4242C34.3549 18.162 34.7582 22.4276 33.7193 25.532C33.2915 25.2876 32.8637 25.0553 32.436 24.8231C31.9226 24.6764 31.4215 24.5053 30.8226 24.4442C30.1015 24.432 29.3926 24.4442 28.9282 24.6764C29.8693 24.5787 30.6271 24.8353 31.2137 25.0553C31.556 25.1898 31.7515 25.2753 32.0204 25.4342C32.546 25.7398 33.0104 26.0209 33.4015 26.4364C34.5137 27.4142 35.3082 28.7098 35.6871 30.4209C35.6871 30.4698 35.7482 30.4576 35.736 30.372C35.7849 30.3598 35.8093 30.3231 35.8337 30.2742C35.8948 30.2009 35.9682 30.1276 36.0293 30.042C36.1515 29.8953 36.2737 29.7487 36.3593 29.5653C36.616 29.2598 36.8237 28.9176 37.0193 28.5631C37.4715 27.9031 37.8137 27.1453 38.2049 26.4242C38.8771 24.8842 39.4271 23.222 39.7693 21.3398C40.4537 17.1598 39.6349 13.1998 38.2049 10.2787C36.7382 7.33311 34.6849 4.97422 32.0326 3.202C29.356 1.442 26.2271 0.146442 21.9248 0.0242199C21.9004 -0.0613356 21.8637 0.0364422 21.7782 0.0242199C19.5048 -0.0491134 17.6715 0.268664 15.8504 0.733109C15.0071 1.01422 14.1271 1.25866 13.3815 1.63755C12.526 1.91866 11.8415 2.38311 11.0593 2.72533C10.7782 2.99422 10.3504 3.12867 10.0571 3.38533C9.67818 3.56867 9.39707 3.862 9.01818 4.04533C8.40707 4.58311 7.75929 5.05978 7.1604 5.60978C6.57374 6.14755 6.0604 6.75867 5.49818 7.32089C5.41262 7.51644 5.26596 7.65089 5.11929 7.79755C5.02151 7.98089 4.89929 8.13978 4.7404 8.27422C4.67929 8.49422 4.48374 8.57978 4.4104 8.79978C4.25151 8.922 4.21485 9.16644 4.03151 9.27644C3.87262 9.66756 3.59151 9.94867 3.40818 10.3153C3.18818 10.6698 3.01707 11.0609 2.79707 11.4031C2.45485 12.1976 2.08818 12.9676 1.80707 13.8231C1.51374 14.6542 1.26929 15.5342 1.09818 16.4876C0.914847 17.3798 0.743735 18.5409 0.76818 19.482C0.645958 19.8242 0.743735 20.4598 0.76818 20.8631C0.76818 20.9364 0.719291 20.9609 0.719291 21.0098C0.719291 21.462 0.841513 22.012 0.865958 22.2931C0.963735 23.332 1.14707 24.2976 1.4404 25.1409C1.62374 26.082 2.01485 26.8153 2.29596 27.6587C2.72374 28.3676 3.01707 29.2109 3.5304 29.8464C3.90929 30.592 4.44707 31.1787 4.9604 31.7898C5.5104 32.3764 6.0604 32.9753 6.7204 33.452C7.9304 34.5031 9.34818 35.3465 10.9004 36.0676C13.7971 37.4731 18.1237 38.3898 22.0104 38.1576C23.0004 38.0231 24.0026 37.9009 24.9071 37.6809C25.7382 37.3753 26.7037 37.192 27.706 37.0698C29.9915 36.9231 31.9715 37.1309 33.7315 37.6442C35.516 38.1209 37.056 38.842 38.3882 39.7831C39.0971 40.1987 39.6837 40.7365 40.2826 41.2498C40.8937 41.7753 41.3826 42.4231 41.9449 43.0098C42.0182 43.2298 42.1649 43.3887 42.2749 43.5842C42.4215 43.7431 42.3482 44.1098 42.7026 44.0609C42.9226 43.8409 42.666 43.5231 42.6537 43.2542C42.4337 43.022 42.3849 42.7164 42.2137 42.5209Z" fill="#343434"/>
<path d="M33.3405 29.5169C33.2916 29.5169 33.2794 29.5535 33.2427 29.5657C33.1572 29.7491 33.1938 30.0424 33.2427 30.2257C33.4994 30.7513 33.5849 31.4357 34.1472 31.6557C34.416 31.5702 34.3916 31.1791 34.3794 30.8002C34.2571 30.3357 34.086 29.9202 33.8049 29.6146C33.6094 29.5413 33.4749 29.4191 33.3405 29.5169ZM30.016 30.8491C30.016 30.8246 29.9794 30.8002 29.9672 30.8491C29.5027 30.788 29.3438 31.0446 29.1116 31.228C28.7083 32.2913 29.356 33.3302 30.4927 33.318C30.9449 33.208 31.226 32.9146 31.2994 32.4135C31.2383 31.5213 30.8594 30.9469 30.016 30.8491Z" fill="#343434"/>
</g>
<defs>
<clipPath id="clip0_85_7292">
<rect width="42.1667" height="44" fill="white" transform="translate(0.658203)"/>
</clipPath>
</defs>
</svg>
