<svg viewBox="0 0 178 86" fill="none" xmlns="http://www.w3.org/2000/svg">
<g clip-path="url(#clip0_536_1254)">
<mask id="mask0_536_1254" style="mask-type:luminance" maskUnits="userSpaceOnUse" x="0" y="0" width="178" height="86">
<path d="M178 0H0V86H178V0Z" fill="white"></path>
</mask>
<g mask="url(#mask0_536_1254)">
<path d="M90.5242 56.3344C90.2788 56.6348 89.9622 56.8693 89.6032 57.0166C89.2211 57.1762 88.8106 57.2571 88.3965 57.2546C87.9848 57.2623 87.5754 57.1924 87.1897 57.0484C86.8437 56.9217 86.5295 56.7214 86.2687 56.4614C85.9993 56.2082 85.788 55.8997 85.6494 55.5571C85.505 55.1774 85.435 54.7734 85.443 54.3673C85.438 53.982 85.5081 53.5994 85.6494 53.2409C85.7824 52.9031 85.9822 52.5955 86.237 52.3367C86.4829 52.0733 86.7801 51.8627 87.1103 51.718C87.4653 51.5625 87.8502 51.4867 88.2377 51.4959C88.6507 51.4898 89.0625 51.5433 89.4603 51.6545C89.8168 51.7631 90.143 51.9532 90.4131 52.2098L89.9526 52.9871C89.7365 52.79 89.4826 52.6389 89.2063 52.5429C88.935 52.4533 88.6504 52.4104 88.3647 52.416C88.1246 52.416 87.8869 52.4645 87.666 52.5588C87.4314 52.6407 87.2193 52.7766 87.0468 52.9554C86.8667 53.1299 86.7259 53.3408 86.6339 53.5741C86.531 53.826 86.4772 54.0952 86.4751 54.3673C86.4773 54.6496 86.5311 54.9292 86.6339 55.1922C86.7393 55.4261 86.8905 55.6365 87.0785 55.8109C87.2562 55.9795 87.4671 56.1091 87.6978 56.1917C87.9458 56.2878 88.2098 56.3362 88.4759 56.3344C88.7851 56.3434 89.0914 56.2724 89.3651 56.1282C89.6237 56.0052 89.8557 55.8327 90.0478 55.6206L90.5242 56.3344Z" fill="#1B0A40"></path>
<path d="M91.7949 57.1272V51.6064H92.7794V55.7153L95.971 51.6064H96.9396V57.1272H95.971V53.0184L92.7794 57.1272H91.7949Z" fill="#1B0A40"></path>
<path d="M103.434 56.3338C103.192 56.6377 102.874 56.8729 102.513 57.0159C102.136 57.1751 101.731 57.256 101.322 57.2539C100.91 57.2616 100.501 57.1917 100.115 57.0477C99.7644 56.9213 99.4449 56.7211 99.1783 56.4607C98.9188 56.2025 98.7137 55.895 98.5749 55.5564C98.4251 55.1777 98.3496 54.7737 98.3526 54.3665C98.3526 53.9802 98.4281 53.5975 98.5749 53.2401C98.7023 52.9032 98.8968 52.5957 99.1465 52.336C99.3983 52.0722 99.7007 51.8617 100.036 51.7173C100.39 51.5603 100.775 51.4844 101.163 51.4952C101.571 51.4891 101.977 51.5426 102.37 51.6538C102.73 51.7547 103.058 51.9459 103.323 52.2091L102.878 52.9864C102.659 52.7856 102.399 52.6341 102.116 52.5422C101.85 52.4526 101.571 52.4096 101.29 52.4153C101.045 52.4165 100.802 52.465 100.576 52.5581C100.347 52.6422 100.14 52.7779 99.9722 52.9547C99.7875 53.1253 99.646 53.3374 99.5594 53.5734C99.4492 53.8231 99.395 54.0937 99.4006 54.3665C99.3949 54.6496 99.449 54.9308 99.5594 55.1915C99.6649 55.4213 99.81 55.6307 99.9881 55.8103C100.171 55.9792 100.388 56.1088 100.623 56.191C100.866 56.287 101.124 56.3355 101.385 56.3338C101.699 56.3406 102.01 56.2698 102.29 56.1275C102.549 56.0045 102.781 55.832 102.973 55.6198L103.434 56.3338Z" fill="#1B0A40"></path>
<path d="M103.942 51.6064H108.975V52.59H106.943V57.1272H105.958V52.59H103.942V51.6064Z" fill="#1B0A40"></path>
<path d="M114.517 56.5244C114.239 56.7789 113.909 56.9686 113.548 57.0796C113.189 57.1929 112.814 57.2517 112.437 57.2541C112.02 57.262 111.605 57.192 111.214 57.0479C110.868 56.9213 110.554 56.721 110.293 56.4609C110.034 56.2027 109.829 55.8952 109.69 55.5566C109.546 55.1769 109.475 54.773 109.484 54.3668C109.481 53.9832 109.546 53.602 109.674 53.2405C109.796 52.9043 109.985 52.5966 110.23 52.3362C110.479 52.0689 110.782 51.8579 111.119 51.7175C111.501 51.559 111.912 51.4833 112.326 51.4954C112.667 51.4967 113.005 51.5557 113.326 51.6699C113.632 51.7911 113.912 51.9687 114.152 52.1934C114.385 52.4179 114.568 52.6879 114.692 52.9866C114.835 53.3113 114.905 53.6632 114.898 54.0178C114.925 54.2391 114.925 54.4628 114.898 54.6841H110.659C110.662 54.9157 110.717 55.1437 110.819 55.352C110.92 55.5603 111.066 55.7439 111.246 55.8898C111.621 56.1968 112.096 56.355 112.58 56.334C112.916 56.3358 113.249 56.2766 113.564 56.1595C113.822 56.0667 114.064 55.9327 114.279 55.7629L114.517 56.5244ZM112.278 52.4155C112.059 52.3972 111.839 52.4244 111.632 52.4954C111.424 52.5664 111.233 52.6796 111.071 52.828C110.764 53.0949 110.57 53.4697 110.532 53.875H113.882C113.872 53.4699 113.707 53.0839 113.421 52.7963C113.105 52.5242 112.695 52.3874 112.278 52.4155Z" fill="#1B0A40"></path>
<path d="M116.232 51.6064H117.121L119.249 54.3351L121.265 51.6064H122.123V57.1272H121.154V53.0977L119.233 55.6677H119.201L117.216 53.0977V57.1272H116.232V51.6064Z" fill="#1B0A40"></path>
<path d="M123.949 51.9871C124.213 51.8313 124.496 51.7087 124.791 51.6222C125.118 51.539 125.454 51.4964 125.791 51.4953C126.083 51.469 126.377 51.508 126.651 51.6095C126.926 51.7111 127.175 51.8726 127.379 52.0822C127.726 52.5657 127.894 53.1544 127.855 53.748V57.1271H126.934V56.4132C126.756 56.6459 126.528 56.8357 126.267 56.9684C125.93 57.1468 125.553 57.2343 125.172 57.2223C124.714 57.2386 124.269 57.0732 123.933 56.7622C123.776 56.5952 123.654 56.3981 123.574 56.1827C123.495 55.9673 123.461 55.7381 123.473 55.5089C123.464 55.2512 123.519 54.9953 123.631 54.7633C123.734 54.5502 123.88 54.361 124.06 54.208C124.262 54.0597 124.487 53.9471 124.727 53.8749C124.995 53.7971 125.274 53.7597 125.553 53.7638C125.79 53.7424 126.03 53.7424 126.267 53.7638C126.509 53.8063 126.737 53.9041 126.934 54.0494C126.952 53.8171 126.952 53.5837 126.934 53.3514C126.917 53.1558 126.858 52.9663 126.76 52.7961C126.664 52.6751 126.538 52.5819 126.394 52.5264C126.19 52.4354 125.967 52.392 125.743 52.3995C125.426 52.3836 125.108 52.4267 124.806 52.5264L124.14 52.812L123.949 51.9871ZM125.537 56.3338C125.846 56.3489 126.152 56.2656 126.41 56.0959C126.615 55.9616 126.802 55.8016 126.966 55.62V54.9219C126.6 54.676 126.168 54.5486 125.727 54.5571C125.58 54.5414 125.431 54.5414 125.283 54.5571C125.148 54.5958 125.019 54.6546 124.902 54.7316C124.794 54.797 124.707 54.8901 124.648 55.0013C124.583 55.1288 124.55 55.2705 124.552 55.4137C124.547 55.5315 124.567 55.6491 124.611 55.7585C124.654 55.868 124.721 55.9668 124.806 56.0483C125.01 56.2186 125.272 56.3038 125.537 56.2863" fill="#1B0A40"></path>
<path d="M137.112 49.1954C136.964 49.3928 136.775 49.5553 136.557 49.6713C136.346 49.7589 136.128 49.8279 135.906 49.8775L135.159 50.0203C134.861 50.0634 134.571 50.1545 134.302 50.29C134.053 50.3923 133.835 50.5561 133.667 50.7659C133.491 50.9562 133.351 51.1766 133.254 51.4164C133.141 51.6587 133.061 51.9147 133.016 52.1778C132.956 52.4333 132.919 52.6934 132.905 52.9552C132.991 52.7624 133.109 52.5854 133.254 52.4317C133.411 52.2772 133.587 52.1439 133.778 52.0351C133.969 51.9133 134.178 51.8223 134.397 51.7654C134.619 51.7016 134.849 51.6696 135.08 51.6702C135.445 51.6617 135.808 51.732 136.144 51.8764C136.452 51.9993 136.728 52.189 136.954 52.4317C137.183 52.677 137.357 52.9693 137.462 53.2883C137.593 53.6492 137.657 54.0308 137.652 54.4147C137.651 54.7906 137.575 55.1625 137.43 55.5093C137.303 55.8463 137.108 56.1539 136.858 56.4136C136.6 56.6728 136.292 56.8778 135.953 57.0164C135.594 57.1772 135.204 57.2583 134.81 57.2544C134.395 57.2615 133.984 57.1804 133.603 57.0164C133.25 56.8593 132.935 56.6264 132.682 56.3343C132.413 56.0198 132.213 55.6523 132.095 55.2555C131.948 54.7886 131.879 54.301 131.888 53.8119C131.893 53.3877 131.919 52.9641 131.968 52.5427C132.014 52.1049 132.11 51.6738 132.254 51.2577C132.406 50.8598 132.614 50.4858 132.873 50.1472C133.157 49.8038 133.523 49.5366 133.937 49.3699C134.213 49.2384 134.507 49.1475 134.81 49.1002L135.509 48.9733C135.705 48.9436 135.897 48.8903 136.08 48.8146C136.271 48.7255 136.435 48.5889 136.557 48.418L137.112 49.1954ZM132.968 53.9546C132.966 54.2815 133.009 54.6071 133.095 54.9223C133.18 55.1854 133.309 55.4321 133.476 55.6521C133.638 55.8449 133.838 56.0017 134.064 56.1122C134.302 56.2256 134.562 56.2852 134.826 56.2867C135.077 56.2901 135.325 56.2415 135.556 56.1439C135.771 56.0435 135.965 55.9035 136.128 55.7314C136.294 55.5674 136.42 55.3662 136.493 55.1444C136.591 54.9137 136.64 54.6652 136.636 54.4147C136.653 53.9289 136.489 53.4542 136.176 53.0821C136.015 52.8981 135.814 52.7537 135.588 52.6602C135.362 52.5666 135.117 52.5264 134.874 52.5427C134.63 52.5408 134.387 52.5838 134.159 52.6696C133.954 52.7464 133.761 52.8534 133.587 52.9869C133.431 53.1112 133.296 53.2614 133.19 53.4311C133.083 53.5898 133.008 53.7675 132.968 53.9546Z" fill="#1B0A40"></path>
<path d="M139.097 51.6064H140.082V53.2722H140.987C141.348 53.2596 141.709 53.3133 142.051 53.4308C142.301 53.5165 142.529 53.6575 142.718 53.8433C142.882 54.0184 143.002 54.2307 143.067 54.462C143.144 54.6866 143.181 54.9227 143.178 55.16C143.176 55.4086 143.133 55.6551 143.051 55.8898C142.978 56.1212 142.853 56.3329 142.686 56.5085C142.484 56.7083 142.24 56.8602 141.971 56.9527C141.62 57.0773 141.248 57.1365 140.876 57.1272H139.097V51.6064ZM140.082 54.1923V56.2071H140.796C141.159 56.2435 141.524 56.1538 141.828 55.9533C141.932 55.8599 142.013 55.7443 142.065 55.6151C142.117 55.4859 142.14 55.3466 142.13 55.2076C142.141 55.0662 142.119 54.9241 142.067 54.7922C142.015 54.6602 141.933 54.5419 141.828 54.4462C141.528 54.2491 141.17 54.1596 140.812 54.1923H140.082ZM144.226 51.6064H145.211V57.1272H144.226V51.6064Z" fill="#1B0A40"></path>
<path d="M151.673 56.3335C151.431 56.6374 151.114 56.8726 150.752 57.0157C150.37 57.1765 149.96 57.2575 149.545 57.2536C149.139 57.2617 148.735 57.1917 148.355 57.0474C148.002 56.9248 147.682 56.7241 147.418 56.4604C147.158 56.2022 146.953 55.8947 146.814 55.5562C146.664 55.1775 146.589 54.7735 146.592 54.3663C146.595 53.9817 146.664 53.6005 146.798 53.24C146.931 52.9021 147.131 52.5946 147.386 52.3357C147.638 52.0719 147.94 51.8615 148.275 51.717C148.625 51.5613 149.004 51.4855 149.387 51.4949C149.8 51.4878 150.212 51.5412 150.609 51.6535C150.969 51.7544 151.297 51.9456 151.562 52.2088L151.117 52.9861C150.898 52.7853 150.638 52.6338 150.355 52.5419C150.089 52.4523 149.81 52.4094 149.53 52.415C149.284 52.415 149.041 52.4636 148.815 52.5578C148.586 52.642 148.38 52.7777 148.212 52.9544C148.027 53.1251 147.885 53.3371 147.799 53.5731C147.689 53.8228 147.634 54.0935 147.64 54.3663C147.634 54.6494 147.688 54.9305 147.799 55.1913C147.904 55.421 148.049 55.6304 148.228 55.81C148.411 55.9789 148.627 56.1085 148.863 56.1907C149.105 56.2867 149.364 56.3352 149.625 56.3335C149.939 56.3403 150.25 56.2695 150.53 56.1273C150.789 56.0043 151.021 55.8318 151.213 55.6196L151.673 56.3335Z" fill="#1B0A40"></path>
<path d="M152.181 51.6064H157.199V52.59H155.182V57.1272H154.198V52.59H152.181V51.6064Z" fill="#1B0A40"></path>
<path d="M158.279 51.6059H159.263V52.2563C159.474 52.015 159.741 51.8296 160.041 51.7169C160.386 51.5645 160.76 51.4887 161.137 51.4948C161.502 51.4863 161.865 51.5566 162.201 51.701C162.499 51.8396 162.768 52.0334 162.995 52.2721C163.225 52.5294 163.398 52.8321 163.503 53.1605C163.634 53.5214 163.699 53.903 163.693 54.2869C163.691 54.687 163.621 55.0838 163.487 55.4609C163.354 55.8083 163.155 56.1263 162.899 56.3969C162.642 56.6659 162.335 56.8815 161.994 57.0314C161.62 57.1791 161.221 57.2545 160.819 57.2535C160.531 57.255 160.243 57.2231 159.962 57.1583C159.714 57.1052 159.477 57.0085 159.263 56.8728V59.5856H158.279V51.6059ZM160.851 52.4149C160.53 52.4075 160.212 52.484 159.93 52.637C159.669 52.7634 159.441 52.9479 159.263 53.1764V55.9051C159.481 56.0545 159.723 56.167 159.978 56.2382C160.221 56.3019 160.472 56.3339 160.724 56.3334C161.002 56.3408 161.279 56.2866 161.534 56.1748C161.757 56.0802 161.957 55.9396 162.121 55.7623C162.297 55.5837 162.427 55.3663 162.502 55.1277C162.601 54.8697 162.65 54.595 162.645 54.3186C162.642 54.061 162.605 53.805 162.534 53.5571C162.459 53.3314 162.334 53.1254 162.169 52.9543C162.023 52.7745 161.831 52.6375 161.613 52.5577C161.372 52.4589 161.112 52.4103 160.851 52.4149Z" fill="#1B0A40"></path>
<path d="M165.091 51.6064H166.091V53.2722H166.996C167.357 53.2596 167.718 53.3133 168.06 53.4308C168.31 53.5165 168.538 53.6575 168.727 53.8433C168.891 54.0184 169.011 54.2307 169.076 54.462C169.153 54.6866 169.19 54.9227 169.187 55.16C169.185 55.4086 169.142 55.6551 169.06 55.8898C168.989 56.1254 168.858 56.3385 168.679 56.5085C168.486 56.7114 168.246 56.8639 167.981 56.9527C167.628 57.0746 167.258 57.1337 166.885 57.1272H165.107L165.091 51.6064ZM166.075 54.1923V56.2071H166.79C167.153 56.2435 167.517 56.1538 167.822 55.9533C167.925 55.8599 168.006 55.7443 168.058 55.6151C168.111 55.4859 168.133 55.3466 168.123 55.2076C168.134 55.0662 168.113 54.9241 168.06 54.7922C168.008 54.6602 167.927 54.5419 167.822 54.4462C167.522 54.2491 167.163 54.1596 166.806 54.1923H166.075ZM170.219 51.6064H171.204V57.1272H170.219V51.6064Z" fill="#1B0A40"></path>
<path d="M175.904 54.2716L178 57.1272H176.793L175.174 54.8903L173.538 57.1272H172.395L174.475 54.3192L172.522 51.6064H173.713L175.205 53.6847L176.73 51.6064H177.873L175.904 54.2716Z" fill="#1B0A40"></path>
<path d="M89.7937 63.9328H86.7926V68.5334H85.8081V63.0127H90.7782V68.5334H89.7937V63.9328Z" fill="#1B0A40"></path>
<path d="M96.336 64.0124H94.3988V64.9325C94.363 65.5756 94.2619 66.2135 94.0971 66.8362C94.011 67.2334 93.8493 67.6105 93.6207 67.9468C93.4647 68.1895 93.2373 68.3778 92.9697 68.4861C92.7136 68.5705 92.4455 68.6133 92.1758 68.613V67.6611C92.3014 67.6881 92.4313 67.6881 92.5569 67.6611C92.7235 67.5612 92.8605 67.4189 92.9538 67.2487C93.1144 66.9718 93.2322 66.6723 93.3032 66.3603C93.4382 65.8418 93.5128 65.3094 93.5255 64.7738L93.6207 63.0605H97.4634V68.5812H96.4789L96.336 64.0124Z" fill="#1B0A40"></path>
<path d="M99.1145 63.4098C99.3737 63.244 99.6578 63.1208 99.9561 63.045C100.281 62.9487 100.618 62.9006 100.957 62.9022C101.248 62.8747 101.543 62.9132 101.818 63.0148C102.092 63.1164 102.341 63.2786 102.545 63.4892C102.889 63.9737 103.057 64.5616 103.021 65.1549V68.534H102.1V67.8359C101.918 68.0645 101.691 68.2535 101.433 68.3912C101.095 68.5655 100.717 68.6476 100.337 68.6292C99.887 68.6473 99.4478 68.4877 99.1145 68.185C98.9462 68.0217 98.8163 67.8232 98.7339 67.6038C98.6516 67.3843 98.6188 67.1494 98.6382 66.9158C98.6296 66.6581 98.6841 66.4022 98.7969 66.1702C98.8998 65.9574 99.0523 65.7724 99.2415 65.6308C99.4306 65.4686 99.6528 65.3495 99.8926 65.2818C100.166 65.2038 100.45 65.1664 100.734 65.1708C100.969 65.1763 101.203 65.2028 101.433 65.2501C101.671 65.2941 101.898 65.3858 102.1 65.5198C102.117 65.2874 102.117 65.0541 102.1 64.8217C102.085 64.6278 102.031 64.4388 101.941 64.2665C101.846 64.1193 101.715 63.999 101.56 63.9175C101.352 63.821 101.122 63.7775 100.893 63.7906C100.608 63.7808 100.324 63.8183 100.052 63.9016C99.8173 63.9804 99.589 64.0758 99.3686 64.1872L99.1145 63.4098ZM100.703 67.7408C101.014 67.7503 101.322 67.6735 101.592 67.5187C101.793 67.3796 101.975 67.2142 102.132 67.0269V66.3288C101.766 66.0829 101.334 65.9555 100.893 65.964C100.751 65.9409 100.606 65.9409 100.464 65.964C100.33 65.9975 100.202 66.051 100.083 66.1226C99.9736 66.1973 99.8815 66.2947 99.8132 66.4082C99.748 66.5301 99.7153 66.6666 99.718 66.8048C99.7114 66.9227 99.7308 67.0406 99.7747 67.1502C99.8186 67.2598 99.8858 67.3585 99.972 67.4393C100.176 67.6096 100.438 67.6949 100.703 67.6773" fill="#1B0A40"></path>
<path d="M104.021 63.0127H109.055V63.9963H107.022V68.5334H106.054V63.9963H104.021V63.0127Z" fill="#1B0A40"></path>
<path d="M114.596 67.9466C114.321 68.1927 113.996 68.3766 113.644 68.486C113.285 68.6046 112.91 68.6636 112.532 68.6605C112.115 68.6699 111.7 68.5999 111.31 68.4543C110.958 68.3373 110.638 68.142 110.373 67.8832C110.109 67.6253 109.908 67.3106 109.785 66.963C109.643 66.5883 109.573 66.1899 109.579 65.7891C109.568 65.4062 109.628 65.0246 109.753 64.6627C109.871 64.3201 110.061 64.0065 110.309 63.7426C110.562 63.4804 110.864 63.2702 111.198 63.1239C111.587 62.9701 112.003 62.8947 112.421 62.9018C112.764 62.9005 113.103 62.9651 113.421 63.0922C113.726 63.1978 114.003 63.3714 114.231 63.5998C114.461 63.827 114.644 64.0964 114.771 64.393C114.913 64.7182 114.983 65.0697 114.978 65.4242C115.004 65.6455 115.004 65.8692 114.978 66.0905H110.674C110.683 66.3235 110.74 66.5522 110.841 66.7624C110.942 66.9726 111.085 67.1597 111.262 67.3121C111.642 67.6083 112.114 67.7601 112.596 67.7404C112.931 67.7483 113.265 67.6945 113.58 67.5818C113.843 67.4911 114.085 67.351 114.295 67.1693L114.596 67.9466ZM112.373 63.8219C111.929 63.8016 111.492 63.9488 111.151 64.2344C110.853 64.5152 110.662 64.8911 110.611 65.2973H113.961C113.963 65.0954 113.924 64.8954 113.844 64.7097C113.765 64.524 113.648 64.3567 113.501 64.2185C113.191 63.9447 112.787 63.8024 112.373 63.8219Z" fill="#1B0A40"></path>
<path d="M115.454 63.0283H116.692L118.582 65.6776L116.565 68.5332H115.359L117.486 65.6776L115.454 63.0283ZM118.836 63.0283H119.821V68.5332H118.836V63.0283ZM121.17 65.6776L123.33 68.5332H122.107L120.059 65.6776L121.964 63.0283H123.219L121.17 65.6776Z" fill="#1B0A40"></path>
<path d="M128.76 67.9464C128.482 68.1962 128.151 68.3805 127.792 68.4858C127.434 68.6068 127.058 68.6658 126.68 68.6603C126.268 68.6704 125.858 68.6004 125.473 68.4541C125.122 68.3371 124.801 68.1418 124.536 67.883C124.273 67.6218 124.068 67.3084 123.933 66.9629C123.796 66.5865 123.727 66.1892 123.727 65.7889C123.721 65.405 123.786 65.0234 123.917 64.6625C124.035 64.3199 124.224 64.0063 124.473 63.7424C124.726 63.4802 125.028 63.27 125.362 63.1237C125.746 62.972 126.156 62.8966 126.569 62.9016C126.912 62.8974 127.252 62.9622 127.569 63.092C127.877 63.2012 128.159 63.3742 128.395 63.5996C128.624 63.8269 128.808 64.0962 128.935 64.3928C129.076 64.718 129.147 65.0696 129.141 65.424C129.168 65.6453 129.168 65.869 129.141 66.0903H124.806C124.808 66.3247 124.861 66.5557 124.963 66.7669C125.065 66.9781 125.212 67.1643 125.394 67.3119C125.774 67.6081 126.246 67.7599 126.728 67.7402C127.063 67.7471 127.396 67.6933 127.712 67.5816C127.971 67.4837 128.212 67.3443 128.427 67.1691L128.76 67.9464ZM126.521 63.8217C126.081 63.8007 125.65 63.9483 125.314 64.2342C125.011 64.5108 124.819 64.8888 124.775 65.2971H128.125C128.115 64.892 127.95 64.506 127.665 64.2183C127.351 63.9405 126.94 63.798 126.521 63.8217Z" fill="#1B0A40"></path>
<path d="M130.475 68.5497V63.029H131.46V67.1378L134.635 63.029H135.62V68.5497H134.635V64.4409L131.46 68.5497H130.475ZM132.174 60.2051C132.174 60.8556 132.539 61.1729 133.127 61.1729C133.714 61.1729 133.968 60.8556 134.016 60.2051H134.937C134.946 60.4391 134.902 60.6721 134.81 60.8873C134.727 61.0904 134.603 61.2741 134.445 61.4267C134.28 61.5841 134.086 61.7081 133.873 61.7916C133.633 61.8762 133.381 61.9191 133.127 61.9185C132.852 61.9202 132.578 61.8774 132.317 61.7916C132.102 61.7125 131.907 61.588 131.745 61.4267C131.588 61.2741 131.463 61.0904 131.38 60.8873C131.301 60.6688 131.263 60.4374 131.269 60.2051H132.174Z" fill="#1B0A40"></path>
<path d="M21.6426 42.9922L10.4164 49.4648L0 67.5024L42.4913 42.9922H21.6426Z" fill="#874691"></path>
<path d="M53.7178 24.5107L42.4916 30.9833L32.0752 49.0209L74.5506 24.5107H53.7178Z" fill="#DA1844"></path>
<path d="M42.4916 18.0376L32.0752 0V36.9795V49.0205V86L42.4916 67.9624V18.0376Z" fill="#F9B229"></path>
<path d="M32.0752 0L42.4916 18.0376L53.7178 24.5102H74.5506L32.0752 0Z" fill="#F07F1A"></path>
<path d="M32.0752 36.9795V86L42.4916 67.9623V55.0013L32.0752 36.9795Z" fill="#72B22C"></path>
<path d="M53.7178 61.4893L42.4916 67.962L32.0752 85.9996L74.5506 61.4893H53.7178Z" fill="#00743E"></path>
<path d="M0 18.4814V67.5019L10.4164 49.4643V36.5191L0 18.4814Z" fill="#5F5A94"></path>
<path d="M32.0749 36.9791V36.995L0 18.4814L10.4164 36.5191L53.7176 61.4894H74.5504L32.0749 36.9791Z" fill="#0D90CD"></path>
<path d="M159.136 21.1309V43.198H151.387V27.6987H143.908V43.198H136.16V21.1309H159.136Z" fill="#1B0A40"></path>
<path d="M132.333 32.8707C132.444 39.2164 127.268 43.8329 119.932 43.8329C112.977 43.8329 107.118 39.6289 107.118 29.3964C107.118 20.7028 112.675 13.5322 120.884 13.4053H132.333L128.697 19.9414H121.71C119.98 19.8853 118.291 20.4697 116.966 21.5824C115.641 22.6951 114.775 24.2576 114.533 25.9697C116.739 24.0801 119.567 23.074 122.472 23.1459C125.062 23.1853 127.537 24.2188 129.385 26.0323C131.233 27.8458 132.311 30.3002 132.396 32.8865M124.648 33.3942C124.658 32.7842 124.547 32.1781 124.32 31.6116C124.093 31.0452 123.755 30.5296 123.326 30.0952C122.898 29.6608 122.386 29.3164 121.822 29.082C121.259 28.8475 120.654 28.7279 120.043 28.7301C119.413 28.7149 118.787 28.8276 118.202 29.0614C117.617 29.2952 117.086 29.6452 116.641 30.0902C116.195 30.5352 115.845 31.066 115.611 31.6503C115.377 32.2346 115.264 32.8602 115.279 33.4894C115.303 34.6813 115.784 35.8185 116.624 36.6658C117.463 37.5132 118.596 38.006 119.789 38.0424C120.406 38.0593 121.02 37.953 121.595 37.7298C122.17 37.5066 122.695 37.1709 123.138 36.7424C123.582 36.3139 123.936 35.8013 124.178 35.2345C124.421 34.6678 124.548 34.0583 124.552 33.4418" fill="#1B0A40"></path>
<path d="M101.131 35.6623C99.299 36.7747 97.1936 37.3569 95.0497 37.3439C93.6875 37.2988 92.3957 36.7284 91.4454 35.7523C90.4951 34.7763 89.9601 33.4704 89.9526 32.1087C89.9602 30.7444 90.4974 29.4363 91.4511 28.4598C92.4048 27.4833 93.7006 26.9146 95.0656 26.8735C97.2059 26.8499 99.3091 27.433 101.131 28.5551L104.021 23.3517C101.583 21.4652 98.5777 20.4588 95.4943 20.4961C87.9201 20.4961 82.7119 26.6514 82.7119 32.1087C82.7119 38.4544 88.4918 43.8007 95.4149 43.8324C98.5278 43.8858 101.565 42.8725 104.021 40.961L101.131 35.6623Z" fill="#1B0A40"></path>
</g>
</g>
<defs>
<clipPath id="clip0_536_1254">
<rect width="178" height="86" fill="white"></rect>
</clipPath>
</defs>
</svg>
