<svg width="74" height="24" viewBox="0 0 74 24" fill="none" xmlns="http://www.w3.org/2000/svg">
<g clip-path="url(#clip0_85_7301)">
<path d="M48.1745 0.0371094C42.9696 0.0371094 38.3181 2.75477 38.3181 7.77587C38.3181 13.5341 46.5676 13.9318 46.5676 16.8246C46.5676 18.0426 45.1819 19.133 42.8152 19.133C39.4564 19.133 36.9461 17.6095 36.9461 17.6095L35.8719 22.6763C35.8719 22.6763 38.7638 23.9632 42.6033 23.9632C48.294 23.9632 52.7719 21.1121 52.7719 16.0051C52.7719 9.92052 44.488 9.53462 44.488 6.84964C44.488 5.89549 45.6256 4.85003 47.9855 4.85003C50.6482 4.85003 52.8206 5.95804 52.8206 5.95804L53.8718 1.06433C53.8718 1.06433 51.5081 0.0371094 48.1745 0.0371094ZM0.553768 0.406447L0.427734 1.14512C0.427734 1.14512 2.61749 1.54882 4.58972 2.35412C7.12913 3.27756 7.31002 3.81513 7.7377 5.48482L12.3981 23.5823H18.6454L28.2698 0.406447H22.0368L15.8526 16.1638L13.329 2.80713C13.0976 1.27847 11.9253 0.406447 10.4904 0.406447H0.553768ZM30.7761 0.406447L25.8866 23.5823H31.8302L36.7026 0.406447H30.7761ZM63.9259 0.406447C62.4927 0.406447 61.7333 1.17941 61.1761 2.53013L52.4683 23.5823H58.7012L59.9072 20.0736H67.5007L68.234 23.5823H73.7337L68.9358 0.406447H63.9259ZM64.7365 6.66786L66.5841 15.3646H61.6344L64.7365 6.66786Z" fill="#343434"/>
</g>
<defs>
<clipPath id="clip0_85_7301">
<rect width="73.3793" height="24" fill="white" transform="translate(0.390625)"/>
</clipPath>
</defs>
</svg>
